<?xml version="1.0" encoding="utf-8"?>
<!-- Generator: Adobe Adobe Illustrator 29.2.0, SVG Export Plug-In . SVG Version: 6.00 Build 0)  -->
<svg version="1.1" id="Layer_1" xmlns="http://www.w3.org/2000/svg" xmlns:xlink="http://www.w3.org/1999/xlink" x="0px" y="0px"
	 width="2300px" height="516px" viewBox="0 0 2300 516" style="enable-background:new 0 0 2300 516;" xml:space="preserve">
<style type="text/css">
	.st0{fill:none;stroke:#D0D1D3;stroke-width:17.3017;stroke-linejoin:round;stroke-miterlimit:33.89;}
	.st1{fill-rule:evenodd;clip-rule:evenodd;stroke:#D0D1D3;stroke-width:17.3017;stroke-linejoin:round;stroke-miterlimit:33.89;}
	.st2{fill-rule:evenodd;clip-rule:evenodd;fill:#FFFFFF;}
</style>
<path class="st0" d="M1269.1,97.9h-238.2c3.1-21.4-3-36.7-12.2-52c-15.3-15.3-36.7-24.4-64.1-24.4H32.4C17.1,18.4,11,27.6,17.1,42.9
	l30.5,48.9c3,3,6.1,6.1,15.3,6.1h18.3l3,12.2l30.5,45.8c3.1,6.1,9.2,9.2,18.3,6.1h15.3l24.4,48.9c0,3.1,9.2,6.1,27.5,12.2l400,110
	l27.5,48.9c3.1,9.2,12.2,18.3,24.4,21.4l378.7,97.8L1150,400.4l119.1,100.9l378.7-97.8c12.2-3.1,21.4-12.2,24.4-21.4l27.5-48.9
	l400-110c18.3-6.1,27.5-9.2,27.5-12.2l24.4-48.9h15.3c9.1,3,15.3,0,18.3-6.1l30.5-45.8l3-12.2h18.3c9.2,0,12.2-3.1,15.3-6.1
	l30.5-48.9c6.1-15.3,0-24.5-15.3-21.4h-922.2c-30.5,0-51.9,9.2-64.1,24.4C1272.2,61.2,1266,76.5,1269.1,97.9L1269.1,97.9z
	 M191.2,220.1l516.1-48.9 M377.4,272.1l308.4-70.3 M505.7,308.8l198.5-82.5 M600.3,336.3l131.3-82.5 M630.9,391.3l140.5-107
	 M713.3,418.8l97.7-107 M789.7,437.1l67.2-97.8 M866,458.5l42.7-97.8 M948.4,479.9l18.3-100.8 M1030.9,495.2v-97.8 M1150,400.5
	V223.2 M2108.9,220.1l-519.1-48.9 M1925.6,272.1l-314.5-70.3 M1794.3,308.8l-201.5-85.6 M1699.7,336.3l-131.3-82.5 M1669.1,391.3
	l-140.5-107 M1586.7,418.8l-100.8-110 M1510.3,437.1l-70.2-97.8 M1434,458.5l-42.7-97.8 M1351.6,479.9l-18.3-100.8 M1269.1,501.3
	V397.4 M2166.9,162.1l-577.2-27.5 M753,266l30.5-39.7 M789.7,296.5l48.9-73.4 M832.4,327.1l51.9-100.9 M881.3,348.5l51.9-122.3
	 M939.3,376l51.9-146.7 M1009.5,394.3l33.6-168.1 M1076.7,406.6l15.3-180.3 M1547,266l-30.5-39.7 M1510.3,296.5l-45.8-70.3
	 M1467.6,327.1l-51.9-100.9 M1418.7,348.5l-55-122.3 M1360.7,376l-51.9-146.7 M1290.5,394.3l-33.6-168.1 M1223.3,406.6L1208,226.2
	 M2237.1,97.9h-968 M133.1,162.1l574.1-27.5 M62.9,97.9h968"/>
<path class="st1" d="M1589.7,223.2V97.9H707.2v125.3H1589.7z"/>
<path class="st0" d="M566.7,18.4c48.9,116.2,125.2,207.8,229,278.1c106.9,73.4,226,110,354.2,110c128.2,0,244.3-36.7,351.2-107
	c51.9-33.6,94.7-76.4,134.3-122.3c39.7-45.8,70.2-97.8,94.7-155.9"/>
<path class="st2" d="M767.4,121.5l35.3,81.3h-12.3l-12.3-30.7H749l-12.3,30.7h-7.7l35.2-81.3H767.4z M776.6,166l-13.8-29.1
	L750.6,166H776.6z M848.6,196.6c-4.6,4.6-12.3,7.7-19.9,7.7l-10.7-1.5l-7.7-6.1l1.5-9.2h1.5c4.6,7.7,10.7,12.3,18.4,12.3
	c4.6,0,7.7-1.5,10.7-6.1c3.1-3.1,4.6-7.7,4.6-12.3s-1.5-7.7-4.6-10.7l-12.3-6.1c-6.1-1.5-10.7-4.6-12.3-6.1
	c-4.6-4.6-6.1-9.2-6.1-13.8c0-7.7,3-12.3,7.7-16.9c4.6-4.6,9.2-6.1,16.9-6.1c7.7,0,12.3,1.5,16.9,6.1l-3.1,9.2
	c-3.1-7.7-7.7-10.7-15.3-10.7c-4.6,0-7.7,1.5-9.2,4.6c-3.1,1.5-4.6,4.6-4.6,9.2s1.5,9.2,4.6,12.3l13.8,4.6c4.6,3.1,9.2,6.1,12.3,7.7
	c3.1,3.1,4.6,7.7,4.6,13.8C856.3,185.9,853.3,192,848.6,196.6L848.6,196.6z M923.7,126.1l1.5,4.6l-24.5-1.5v73.6H890v-73.6l-26,1.5
	l1.5-4.6L864,123h61.3L923.7,126.1L923.7,126.1z M948.2,190.5c6.1,6.1,13.8,9.2,21.5,9.2c10.7,0,19.9-4.6,26-13.8
	c4.6-7.7,7.7-15.3,6.1-23c0-10.7-1.5-19.9-6.1-26.1c-6.1-7.7-13.8-12.3-24.5-12.3s-18.4,4.6-24.5,12.3c-4.6,7.7-7.7,16.9-7.7,27.6
	C939,175.2,942.1,184.4,948.2,190.5L948.2,190.5z M926.8,162.9c0-12.3,4.6-23,12.3-30.7c7.7-7.7,18.4-10.7,30.6-10.7
	c12.3,0,23,3.1,30.6,9.2c9.2,7.7,13.8,16.9,13.8,30.7c0,13.8-4.6,23-12.3,30.7c-7.7,7.7-18.4,12.3-32.2,12.3
	c-12.3,0-23-3.1-30.6-10.7C931.4,185.9,926.8,175.2,926.8,162.9L926.8,162.9z M1098.4,202.8h-4.6l-55.2-62.9h-1.5v62.9h-6.1V123h4.6
	l55.2,59.8V123h7.7L1098.4,202.8L1098.4,202.8z M1159.7,123c13.8,26.1,24.5,46,33.7,61.3l33.7-61.3h1.5l9.2,79.8h-10.7L1221,143
	c-13.8,26.1-24.5,46-29.1,58.3h-1.5l-7.7-12.3l-23-46l-4.6,59.8h-9.2l12.3-79.8L1159.7,123L1159.7,123z M1314.4,202.8h-6.1
	l-12.3-30.7h-30.6l-10.7,30.7h-9.2l36.8-81.3h3.1l33.7,81.3H1314.4L1314.4,202.8z M1293,166l-12.3-29.1l-12.3,29.1H1293z
	 M1342,127.6v32.2l15.3-1.5c4.6-1.5,7.7-3.1,10.7-4.6l4.6-10.7c0-9.2-4.6-13.8-13.8-15.3L1342,127.6L1342,127.6z M1357.3,123
	c16.8,0,24.5,6.1,24.5,18.4c0,6.1-3.1,10.7-7.7,15.3c-4.6,3.1-9.2,4.6-15.3,6.1l30.6,39.9h-12.3l-30.6-38.4h-4.6v38.4h-9.2V123
	L1357.3,123L1357.3,123L1357.3,123z M1415.6,202.8v-73.6l-24.5,1.5V123h58.2v7.7l-23-1.5v73.6H1415.6z M1473.8,123v79.8h-10.7V123
	H1473.8z M1564.2,202.8h-4.6l-55.1-62.9h-1.5v62.9h-6.1V123h3.1l56.7,59.8V123h7.7V202.8z"/>
</svg>
