<?xml version="1.0" encoding="utf-8"?>
<!-- Generator: Adobe Adobe Illustrator 29.2.0, SVG Export Plug-In . SVG Version: 6.00 Build 0)  -->
<svg version="1.1" id="Layer_1" xmlns="http://www.w3.org/2000/svg" xmlns:xlink="http://www.w3.org/1999/xlink" x="0px" y="0px"
	 width="199px" height="158px" viewBox="0 0 199 158" style="enable-background:new 0 0 199 158;" xml:space="preserve">
<style type="text/css">
	.st0{fill-rule:evenodd;clip-rule:evenodd;fill:#DA291C;}
	.st1{fill:#DA291C;}
</style>
<g transform="matrix(1.9551 0 0 1.9551 2.6804 .75395)">
	<path class="st0" d="M76.2,55.9C70.8,65,60.8,71.2,49.5,71.2c-8.4,0-16-3.4-21.6-8.8h8.7c0,0,25-44,25.1-44.2s0.1-0.3-0.1-0.3H51.3
		c-0.2,0-0.2,0.1-0.3,0.1c-0.1,0.1-14.1,24.5-14.1,24.5H18.6c-0.1-0.8-0.1-1.5-0.1-2.3c0-17.1,13.9-31,31-31
		c8.7,0,16.6,3.6,22.3,9.5c-2.4,4.1-13.4,22.8-14.9,25.5c-0.9-2-4.8-1.6-6.8-1.6c-0.9,1.5-5,9.3-5,9.3h4.4c2,0,2.2,2.1,1.4,3.4
		s-4.1,7.1-4.1,7.1h10.5c0,0,12.9-22.6,20.3-35.4c1,2.1,1.8,4.4,2.3,6.7c2.5-1.7,5.5-2.7,8.8-2.7C84.4,13.2,68.5,0,49.5,0
		C27.3,0,9.3,18,9.3,40.2c0,0.8,0,1.6,0.1,2.3H4.1c-0.3,0-0.4,0.2-0.6,0.4c-0.1,0.2-4.7,8.4-4.9,8.6c0,0.2,0,0.3,0.2,0.3H11
		c5,16.5,20.3,28.5,38.5,28.5c14.5,0,27.1-7.6,34.2-19.1C80.7,60.3,78.1,58.4,76.2,55.9L76.2,55.9z M20.7,51.8h10.7l-5.2,8.9
		C24,58.1,22.1,55.1,20.7,51.8z"/>
	<path class="st1" d="M88.5,34.7c-3,0-8.6,3.5-8.6,9.5c0,2.9,2.3,4.2,4.3,4.2s4.5-1,6.5-2.9l0.1-0.1h-2.9c-0.6,0-1-0.4-0.9-1v-0.3
		c0.1-0.6,0.7-0.9,1.3-0.9h5.6c0.6,0,1,0.5,0.9,1.1l-1,5.6c-0.1,0.6-0.5,1.1-1.2,1.1h-0.2c-0.6,0-1-0.5-0.9-1.1s0.5-2.6,0.5-2.6
		c-2.7,2.5-6,3.9-8.8,3.9c-1.8,0-6.1-0.8-6.1-6.1c0-1.1,0.2-2.2,0.7-3.4v0.1c-0.1,0.2-0.2,0.5-0.3,0.7s-0.1,0.3-0.2,0.5
		s-0.1,0.5-0.2,0.7c0,0.2-0.1,0.3-0.1,0.5c-0.1,0.3-0.1,0.5-0.1,0.8c0,0.1,0,0.3-0.1,0.4c0,0.4-0.1,0.8-0.1,1.3c0,0.4,0,0.8,0.1,1.2
		c0.4,3.6,2.3,6.7,5.1,8.6c0.9,0.6,2,1.1,3.1,1.5c1.1,0.3,2.3,0.5,3.5,0.5c2,0,3.9-0.5,5.6-1.4c2-1.1,3.7-2.7,4.7-4.7
		c0.9-1.7,1.4-3.6,1.4-5.6C100.3,40,95,34.7,88.5,34.7L88.5,34.7z"/>
</g>
</svg>
