<?xml version="1.0" encoding="utf-8"?>
<!-- Generator: Adobe Adobe Illustrator 29.2.0, SVG Export Plug-In . SVG Version: 6.00 Build 0)  -->
<svg version="1.1" id="Layer_1" xmlns="http://www.w3.org/2000/svg" xmlns:xlink="http://www.w3.org/1999/xlink" x="0px" y="0px"
	 width="723.5px" height="633.2px" viewBox="0 0 723.5 633.2" style="enable-background:new 0 0 723.5 633.2;" xml:space="preserve"
	>
<style type="text/css">
	.st0{fill:#FFFFFF;}
</style>
<path class="st0" d="M77.9,6.3C96.1,1.7,115,0,133.8,0c23.4-0.5,47.8,4.1,67.5,17.3c13.1,8.6,22.9,22.8,24.7,38.5
	c1.3,15.1-0.9,31.5-10.4,43.9c-10.7,13.9-30.3,18.5-46.8,14c-5.1-1.4-9.5-4.9-11.7-9.7c10.1-8.2,20.2-17.5,25.2-29.8
	c3.4-7.6,1.6-16.5-2-23.7c-4.6-9.1-13.3-15.7-22.9-18.8c-13.7-4.5-28.5-3.4-42.6-1.8c-17.9,2.4-36.1,8.9-48.7,22.3
	c-11,11.4-16.6,27.1-17.8,42.7c-0.4,6.1-0.9,12.5,1.4,18.4c2.5,7.1,7.6,12.9,13,17.9c8.9,8.1,19.2,14.3,29.7,20.2
	c24.1,13.4,49.5,24.6,73.1,38.9c13.1,8.1,25.9,17.2,35.6,29.4c6.8,8.6,11.5,19.2,11.6,30.2c0.1,14-2.5,28.1-8.3,40.8
	c-7.6,16.8-20.4,30.8-35.5,41.2c-25.8,17.6-56.9,26.5-87.8,29c0.7,0,2.1,0,2.8,0.1c-14.6,0.6-29.5,2.1-43.8-2
	c-11.4-3.1-22.1-9.6-29.3-19c-6-7.9-9.5-17.5-10.5-27.4c-1.4-21.8,2.6-44.7,14.9-63.1c9.3-14.1,24.8-23.9,41.5-26.1
	c8.2-1.1,17.6-2.1,24.8,2.9c5.4,3.5,7.7,10,8.8,16c-14,4.9-27.4,12.9-36.6,24.7c-8.9,11.2-13.5,25.7-12.6,40
	c1.3,9.3,8.4,17.1,16.9,20.6c9.5,4.2,20.2,3.2,30.2,1.5c21.2-3.9,42.3-12.6,57.6-28.2c12.6-12.8,19.4-31,18.4-48.9
	c-0.4-5.6-2.8-10.9-6-15.5c-6.4-8.7-15.5-14.8-24.5-20.4c-27.1-15.9-56.8-26.9-83.5-43.5C33.9,162.5,18,150.2,8.6,133.1
	C3.4,123.6,0.7,112.8,1,102C0.8,79.8,6.8,56.7,21.4,39.5C35.6,22.1,56.5,11.8,77.9,6.3z"/>
<path class="st0" d="M308,58.1c7.9-2.4,16.2-5,24.6-3.7c-0.2,2.6-0.5,5.1-1,7.6c-5.1,21.9-10.4,43.8-15.6,65.7
	c13.2-2.9,26.4-5.6,39.7-7.2c5.2-0.3,11.1-1.2,15.6,2c2.4,1.6,3.5,4.7,2.6,7.4c-1.1,3.3-3.5,6-5.4,8.8c-4.1,5.5-8.1,11.3-12.8,16.3
	c-2.4,2.6-5.8,3.7-9.2,4.3c-13.8,2.6-27.5,5.9-41.1,9.3c-5.9,21.2-11.7,42.5-16.8,64c-1.5,7.1-3.4,14.1-4.2,21.3
	c-0.3,5,0.4,10.6,3.9,14.4c3.5,3.5,9,3,13.3,1.6c11-3.7,20.9-10.1,30.7-16.1c1.1-13.2,3.4-26.4,8.8-38.6c8.3-19.6,22.6-36.9,41-47.8
	c10.8-6.2,23.1-10.7,35.7-9.8c5.7,0.5,7.1,7.1,11.6,9.6c6.5,3.2,14.4-0.7,20.8,2.6c4.6,3.5,4.2,10.1,4,15.2
	c-1.7,22.3-10.5,43.5-10.8,66c0.3,6.1,0.2,12.6,3,18.2c1.6,3.7,6.5,2.7,9.4,1.2c6.1-3.4,10.7-8.9,14.9-14.4c2.1-3,4.6-5.8,5.5-9.4
	c11.2-54.7,26.2-108.6,39.6-162.8c2-8.7,4.4-17.4,5.4-26.3c10.1-3,21.6-4.1,31.3,0.7c7.2,3.6,10.1,12.3,9.2,19.9
	c-1.9,20-8.7,39.2-14.8,58.2c-4.5,14-9.8,27.9-12.4,42.4c14.6-7.6,26.9-18.7,38.8-30c11.7-11.2,22.8-23.2,33.3-35.5
	c6.8,1.6,14.2,3.4,19.2,8.7c3.7,3.6,3.3,9.7,0.7,13.9c-4.1,7-10.2,12.5-15.9,18.2c-17,15.6-35.1,30-53.6,43.7
	c2.7,21.6,7.7,43.1,15.6,63.5c7.2,18.2,16.9,36.1,31.6,49.3c10.5,9.6,24.1,15.9,38.4,17c24,1.4,49.3-3.9,68.4-19.2
	c3.5-2.7,6.6-6.1,10.8-7.5c3.4,10.2,1,22.1-6.5,29.8c-9.3,9.7-22.5,14.3-35.4,17.1c-17.5,3.4-35.6,4.2-53.2,1.4
	c-20.3-3.4-39.8-13.1-54.1-27.9c-11.1-10.8-19.6-24-26.3-38c-11-23.5-16.8-49.1-19.9-74.9c-3.2,8.8-4.4,18.1-5.6,27.3
	c-1.5,12.1-1.9,24.2-2.6,36.4c-0.4,7,0,14.1-1.4,21.1c-4.9,3.9-11.2,5.3-17.1,6.7c-7.5,1.3-16.4,1.9-22.6-3.3
	c-5.3-4.4-5.8-11.7-5.8-18c-5.1,7.4-11.2,14.6-19.2,19c-6.2,3.6-14,2.4-20.1-0.7c-7.7-4-12.5-11.7-15.9-19.3
	c-11,10.8-24.8,19.5-40.3,21.5c-11.8,1.7-24.8-1.8-33.1-10.7c-3.1-3.2-5.2-7.1-7.1-11.1c-15.7,11-33.5,19.5-52.8,21.4
	c-9.5,0.6-19.8,0.7-28.3-4.3c-7.8-4.1-12.4-12.6-13.2-21.2c-0.9-9.4,1-18.7,2.5-28c3.9-21.8,9.1-43.3,14.5-64.8
	c-11.1,4.2-22.2,8.4-33.7,11.3c-4.2,1-8.6,1.8-12.9,1c-4.9-1.3-8.4-5.4-11.1-9.4c-3.9-6.2-6.6-13.1-8.4-20.2
	c25.1-9,50.4-17.2,75.7-25.9c4.4-16.3,8.6-32.7,13-49c3-13.7,13.4-26.2,27.1-29.8l0,0V58.1z M403.8,189.9
	c-11.9,10.1-20.7,23.4-27.6,37.4c-4.6,10.3-9.1,21.3-8,32.8c0.3,4.8,3.5,9.6,8.4,10.5c6.6,1.2,13.7-0.6,19.1-4.6
	c9.3-7,14.2-18.1,17.6-28.9c5.2-17.8,7.3-36.5,7.1-55.1c-6.2,0.9-11.9,3.8-16.6,7.8V189.9z"/>
<path class="st0" d="M653.1,167c10.9-5.8,23.4-9.6,35.8-8.3c10.9,1,21.9,5.4,29.2,13.8c5.5,6.4,4.7,15.5,4,23.4
	c-2,17.1-14,31.7-29.1,39.2c-15.2,7.8-32.8,9.2-49.6,8.1c-0.6,7.8-1,16.6,4.3,22.9c4,5.1,10.9,6.9,17.2,6.6
	c8.3,0.2,16.7-1.8,24.1-5.7c7.1-3.9,12.9-9.6,18.8-15c6,3.5,10.9,9.6,11.4,16.8c-0.2,5.2-4.8,8.7-8.3,12
	c-15.5,12.8-35.6,20.6-55.8,19.6c-13.5-0.4-27.2-5-36.9-14.7C608,275.6,603,261,602.5,246.8c-0.7-15.8,4.4-31.5,13-44.7
	c9.5-14.6,22.6-26.9,37.9-35.2l0,0L653.1,167z M682.2,179.1c-8.4,4.7-14.8,12.2-20.2,20c-6.7,9.8-12.3,20.5-14.7,32.2
	c12.2,0.4,24.3-4.5,32.8-13.1c8.7-8.8,15.7-20.4,15.6-33.2c0-2.9,0.4-6.2-1.8-8.4c-4.1-1-8.2,0.7-11.8,2.6l0,0L682.2,179.1z"/>
<path class="st0" d="M232.2,412.6c7.1-2.8,15.6,3.7,14.3,11.3c-0.3,8.1-11.1,12.6-17.2,7.3C222.7,426.5,224.5,415,232.2,412.6
	L232.2,412.6L232.2,412.6z M232,414.3c-6.4,2.5-7.4,12.2-1.7,16c5.3,4.4,14.1,0.4,14.8-6.3C246.3,417.1,238.2,411.1,232,414.3
	L232,414.3z"/>
<path class="st0" d="M114.1,414.1c14.8,0,29.5,0,44.3,0c0,4.2,0,8.4,0,12.5c-10.3-0.1-20.6,0-30.9,0c0,4.2,0,8.5,0,12.7
	c10.1,0,20.3,0,30.4,0c0,4.2,0,8.5,0,12.7c-10.1,0-20.3,0-30.4,0c0,8.8,0,17.6,0,26.5c-4.5,0-9,0-13.4,0
	C114.1,457,114.1,435.6,114.1,414.1L114.1,414.1z"/>
<path class="st0" d="M200.4,414.2c3.6,0,7.3,0,10.9,0c0,21.5,0,42.9,0,64.3c-4.6,0-9.1,0-13.6,0c0-14.5,0-29.1,0-43.6
	c-2,2.1-4,4.2-6,6.3c-2.9-3-5.9-6-8.8-9C188.6,426.1,194.6,420.3,200.4,414.2L200.4,414.2L200.4,414.2z"/>
<path class="st0" d="M299.3,414.1c16.8,0,33.5,0,50.2,0c0,4.2,0,8.3,0,12.5c-6.1-0.1-12.3,0-18.4,0c0,17.3,0,34.6,0,51.9
	c-4.5,0-9.1,0-13.6,0c0-17.3,0-34.6,0-51.9c-6.1,0-12.2,0-18.3,0C299.2,422.4,299.2,418.3,299.3,414.1L299.3,414.1L299.3,414.1z"/>
<path class="st0" d="M380.6,414.2c14.9-0.2,29.7,0,44.6,0c0,4.2,0,8.3,0,12.5c-10.3,0-20.7,0-31,0c0,4.2,0,8.5,0,12.7
	c10.1,0,20.1,0,30.2,0c0,4.2,0,8.5,0,12.8c-10.1,0-20.2,0-30.2,0c0,4.5,0,9.1,0,13.6c10.3,0.2,20.6-0.3,30.9,0.3c0,4.2,0,8.3,0,12.5
	c-14.9,0-29.7,0.1-44.6,0c0-21.4,0-42.8,0-64.2l0,0L380.6,414.2z"/>
<path class="st0" d="M478.4,414.1c4.4,0,8.8,0,13.2,0c8.6,21.5,17.2,42.9,26,64.3c-4.9,0-9.9,0-14.8,0c-1.7-4.3-3.4-8.6-5.2-12.9
	c-8.4,0-16.8,0-25.1,0c-1.7,4.3-3.4,8.6-5.1,12.9c-4.9,0-9.8,0-14.7,0C461.2,456.9,469.9,435.5,478.4,414.1L478.4,414.1L478.4,414.1
	z M485,432.3c-2.6,6.9-5.4,13.9-8,20.8c5.3,0,10.6,0,16,0c-2.3-7.1-5.2-13.9-7.9-20.8l0,0H485z"/>
<path class="st0" d="M546.1,414.1c5.2,0,10.4,0,15.6,0c5.3,13,10.5,26.1,16,39.1c5.2-13.1,10.7-26.1,15.9-39.2c5.2,0,10.4,0,15.6,0
	c0,21.5,0,42.9,0,64.3c-4.5,0-9.1,0-13.6,0c-0.2-11.8,0.2-23.7-0.2-35.5c-4.5,12-9.5,23.7-14.3,35.5c-2.4,0-4.8,0-7.1,0
	c-4.8-11.9-9.7-23.7-14.5-35.6c-0.1,11.9,0,23.8,0,35.6c-4.5,0-8.9,0-13.3,0c0-21.5,0-42.9,0-64.4l0,0L546.1,414.1z"/>
<path class="st0" d="M231.6,416.4c2.9,0,5.8,0.4,8.7,1c0,1.8,0.1,3.6,0.1,5.5c-0.6,0.2-1.9,0.7-2.6,0.9c1,1.9,2,3.8,2.9,5.8
	c-2.5-2-4.5-4.4-7-6.4c-0.3,2.4-0.7,4.7-1,7.1c-1.4-4.5-1.1-9.2-1.1-13.8L231.6,416.4z M233.4,417.9c0,1.6,0,3.1,0,4.7
	c1.7,0,3.5-0.1,5.2-0.1c0.1-1.1,0.2-2.2,0.3-3.3c-1.6-1.2-3.6-0.9-5.5-1.2l0,0V417.9z"/>
<path class="st0" d="M368.2,558.3c5.5-5.8,13.9-7.9,21.7-7.5c7.7,0.4,15.3,1.9,22.5,4.5c-1,3.8-2,7.6-3.1,11.4
	c-7.8-1.1-15.7-2.5-23.5-1.8c-6.8,0.5-11,9.5-6.8,14.9c6.3,5.4,15.4,6.5,21.2,12.8c4.6,5.2,4.2,12.9,3.4,19.4
	c-1.2,9-8.1,16.5-16.6,19.2c-12.1,4-25.4,1.5-37.1-2.8c0.8-3.8,1.7-7.7,2.6-11.5c9.6,1,19.6,3.8,29.1,0.9c4.7-1.3,6.6-6.6,6-11.1
	c0.2-4.1-4.1-6-7.1-7.6c-6.7-3.4-15-6.3-18.1-13.7C359.4,576.3,361.2,565.2,368.2,558.3L368.2,558.3L368.2,558.3z"/>
<path class="st0" d="M8.6,552.1c8.9-0.4,17.8,0.1,26.7,0c0,5.8,0,11.6,0,17.5c3,0,6,0,8.9,0c0-3,0-5.9,0-8.9h8.9c0-2.9,0-5.7,0-8.6
	c8.8,0,17.6,0,26.4,0c0,8.8,0,17.6,0,26.5c-2.9,0-5.7,0-8.6,0c-0.2,3-0.5,6-0.5,9c-2.8,0-5.7,0-8.5,0c0,3,0,6,0,9c3,0,5.9,0,8.9,0
	v8.8c2.9,0,5.7,0,8.6,0c0,8.8,0,17.7,0,26.5c-8.8-0.1-17.7,0-26.5,0c0-2.9,0-5.7,0-8.6c-3,0-5.9,0-8.9,0c0-3,0-6,0-8.9
	c-3,0-5.9,0-8.9,0c0,5.9,0,11.7,0,17.6c-8.9,0-17.8,0.1-26.7,0c0-26.5,0-53,0-79.5l0,0L8.6,552.1z"/>
<path class="st0" d="M88.5,552.1c8.9-0.8,17.8,0.3,26.7,0c0,26.5,0,53.1,0,79.6c-8.9,0-17.8,0-26.8,0c0-26.5,0-53,0-79.6H88.5z"/>
<path class="st0" d="M133,552.1c7.2-0.7,14.5-0.3,21.8-0.4c7.4,0,14.9-0.2,22.4,0.2c0,8.9,0,17.7,0,26.6c-8.9,0-17.8,0-26.6,0
	c0,8.9,0,17.8,0,26.7c8.9,0,17.8,0,26.6,0c0,8.8,0,17.7,0,26.5c-14.8,0-29.5,0-44.3,0c0-2.8,0-5.7,0-8.5c-3-0.1-6-0.3-9-0.5
	c0-20.7,0-41.4,0-62c3,0,5.9,0,8.9,0c0-2.8,0-5.7,0-8.5l0,0L133,552.1z"/>
<path class="st0" d="M186.2,552c8.8-0.7,17.7,0.5,26.5,0c0,5.8,0,11.7,0,17.6c2.9,0,5.9,0,8.8,0c0-2.9,0-5.8,0-8.7
	c3-0.2,6-0.3,9-0.3c0-3,0-5.9,0-8.9c8.9,0,17.7,0.1,26.6,0.3c0,8.8,0,17.7,0,26.5c-3,0-5.9,0-8.9,0c0,3,0,5.9,0,8.9
	c-3,0-5.9,0-8.9,0c0,3,0,6,0,8.9c3,0,6,0,9,0c0,3,0,5.9,0,8.9c2.9,0,5.9,0,8.8,0c0,8.8,0,17.6,0,26.5c-8.9,0-17.8,0-26.6,0
	c0-2.9,0-5.7,0-8.6c-3,0-6-0.2-9-0.4c0-2.9,0-5.7,0-8.6c-2.9,0-5.9,0-8.8,0c0,5.9,0,11.7,0,17.6c-8.9,0-17.7,0-26.6,0
	c0-26.6,0-53.1,0-79.7l0,0H186.2z"/>
<path class="st0" d="M303.5,552.1c2,0,4,0,6,0c0.1,26.5,0,53.1,0,79.6c-2,0-4,0-5.9,0c-0.1-26.5,0-53.1,0-79.6H303.5z"/>
<path class="st0" d="M436,552.3c9.4,0,18.7,0,28.1,0c-0.9,9.7-0.6,19.4-1,29.1c-0.8,16.7-0.9,33.4-1.6,50.2c-5.4,0-10.8,0-16.1,0
	c0.2-4.6,0.4-9.2,0.4-13.9c-7.7,0.1-15.4-0.3-23.1,0.4c-2,4.5-3.9,9-6,13.4c-5.4,0-10.8,0-16.1,0C412.5,605.1,424.4,578.8,436,552.3
	L436,552.3L436,552.3z M444.6,568.5c-5.3,11.7-10.4,23.5-15.7,35.2c5.8,0,11.6,0,17.5,0c0.7-12.8,1.1-25.6,1.7-38.4
	c-1.2,1-2.9,1.5-3.5,3.1l0,0V568.5z"/>
<path class="st0" d="M482.4,552.3c5.4,0,10.8,0,16.1,0c-4.2,18.2-8.6,36.3-12.6,54.5c-0.6,3.7-1.9,9.3,2.5,11.2
	c5.1,1.6,11.4,2,15.9-1.4c4.2-3.8,5-9.8,6.3-15c3.6-16.4,7.9-32.7,11.2-49.2c5.4-0.1,10.9,0,16.3,0c-4.1,17.6-8.1,35.2-12.2,52.7
	c-2.1,8.6-5.5,17.8-13.1,23c-8.8,6-20.3,6.2-30.3,3.7c-5.6-1.3-11-5.1-12.6-10.9c-1.6-6.6-0.3-13.5,1.1-20.1
	c3.8-16.1,7.5-32.3,11.2-48.4l0,0L482.4,552.3z"/>
<path class="st0" d="M549,552.3c9.6,0,19.2,0,28.9,0c5.7,0,11.9,1.4,15.8,5.7c4.3,5.1,4.2,12.5,2.7,18.7c-1.6,6.2-6.8,10.6-11.9,14
	c2.8,2.1,5.9,4.5,6.7,8.1c1.5,7.7,0.2,16.3-5,22.5c-5.5,7-14.7,10.2-23.4,10.2c-10.7,0-21.3,0-32,0C536.8,605.1,543,578.7,549,552.3
	L549,552.3z M561.8,566.1c-1.3,6.3-2.9,12.6-4.2,19c4.9,0,10,0.5,14.9-0.5c5.5-1.3,8.9-7.2,8.2-12.7c0.2-2.9-2-5.4-4.8-5.6
	c-4.7-0.4-9.4-0.1-14,0L561.8,566.1z M550,617.7c5.6-0.1,11.3,0.4,16.9-0.3c5.6-1.1,8.6-7.3,8.4-12.7c0.3-3.1-2.3-6-5.3-6.2
	c-5.1-0.5-10.3-0.1-15.4-0.2c-1.5,6.5-3,12.9-4.5,19.3l0,0L550,617.7z"/>
<path class="st0" d="M612.3,552.2c15.5,0,31,0,46.4,0c-1,4.7-2.1,9.4-3.2,14c-10.2,0-20.4-0.2-30.6,0c-1.1,6.3-2.8,12.5-4,18.7
	c7.9,0,15.9,0,23.8,0c-0.9,4.7-2,9.3-3.3,13.9c-8,0-15.9,0-23.8,0c-1.4,6.2-2.8,12.3-4.3,18.4c10.2,0,20.3,0,30.5,0
	c-1,4.7-2.2,9.3-3.1,14c-15.6,0.1-31.2,0-46.8,0c6.1-26.4,12.1-52.8,18.2-79.3l0,0L612.3,552.2z"/>
<path class="st0" d="M667.3,552.2c8.8,0,17.7-0.1,26.5,0.1c6.5,0.4,13.6,2.4,17.4,8.1c4,6,3.6,13.6,3,20.5
	c-1.2,10.2-8,19.2-17.3,23.5c2.2,9,4.2,18.1,6.4,27.1c-5.4,0-10.7,0-16.1,0c-1.8-8.4-3.5-16.8-5.3-25.1c-3.7,0-7.5,0-11.2,0
	c-1.8,8.4-3.8,16.8-5.8,25.1c-5.4,0-10.7,0-16.1,0c6.1-26.4,12.1-52.9,18.3-79.3l0,0L667.3,552.2z M680.3,566
	c-2.1,8.8-4.2,17.7-6.2,26.5c5.8-0.3,12.2,1.4,17.4-2c5-3.8,7.3-10.6,6.6-16.7c-0.4-2.9-1.4-6.5-4.7-7.3
	C689.1,565.6,684.7,566.1,680.3,566L680.3,566z"/>
</svg>
