<?xml version="1.0" encoding="utf-8"?>
<!-- Generator: Adobe Adobe Illustrator 29.2.0, SVG Export Plug-In . SVG Version: 6.00 Build 0)  -->
<svg version="1.1" id="Layer_1" xmlns="http://www.w3.org/2000/svg" xmlns:xlink="http://www.w3.org/1999/xlink" x="0px" y="0px"
	 width="111.8px" height="112px" viewBox="0 0 111.8 112" style="enable-background:new 0 0 111.8 112;" xml:space="preserve">
<style type="text/css">
	.st0{fill:url(#outer_00000010293145829447342540000016626750656431113610_);}
	.st1{fill:url(#SVGID_1_);}
	.st2{fill:url(#SVGID_00000145759529225129522240000006239781028588290182_);}
	.st3{fill:#FFFFFF;}
	.st4{fill:url(#SVGID_00000126308743200341642100000014120168952631779514_);}
	.st5{fill:#565F64;}
	.st6{fill:url(#SVGID_00000060721180045764138680000008663919952558851202_);}
	.st7{fill:#A4AAAE;fill-opacity:0.6;}
	.st8{fill:#333E46;}
	.st9{fill:url(#SVGID_00000111151740750080407260000003078098459106141369_);}
	.st10{fill:url(#SVGID_00000081618068755761007510000018192682436299970207_);}
	.st11{fill:url(#SVGID_00000063610911367567963280000011805344811053453199_);}
	.st12{fill:url(#SVGID_00000165229218838177221230000009044222254621954494_);}
	.st13{fill:url(#SVGID_00000028295926207246717210000006491216995385061543_);}
	.st14{fill:url(#SVGID_00000177466046885766396160000013106851987080749209_);}
	.st15{fill:url(#SVGID_00000156550001968166197000000011229910507416845989_);}
	.st16{fill:url(#SVGID_00000031924029556760972030000009088879436754067337_);}
	.st17{fill:url(#SVGID_00000039098474355417870680000007391133573241252243_);}
	.st18{fill:url(#SVGID_00000000202447302691362040000006819167160008726196_);}
	.st19{fill:#FBFBFB;}
	.st20{fill:#333F47;}
</style>
<g transform="matrix(1.7396 0 0 1.7396 56.085 55.726)">
	<g transform="translate(-32,-32)">
		<g>
			
				<linearGradient id="outer_00000140726370866953222040000004808167755361206418_" gradientUnits="userSpaceOnUse" x1="-71.012" y1="259.4262" x2="-70.0119" y2="259.4262" gradientTransform="matrix(83.5008 69.9319 69.9319 -83.5008 -12204.6123 26640.1992)">
				<stop  offset="0" style="stop-color:#FFFFFF"/>
				<stop  offset="0.1" style="stop-color:#E7E8E6"/>
				<stop  offset="0.1" style="stop-color:#CDD0D0"/>
				<stop  offset="0.2" style="stop-color:#B5BBBD"/>
				<stop  offset="0.2" style="stop-color:#A5ACAF"/>
				<stop  offset="0.3" style="stop-color:#9BA3A7"/>
				<stop  offset="0.3" style="stop-color:#98A0A4"/>
				<stop  offset="0.4" style="stop-color:#828A8F"/>
				<stop  offset="0.5" style="stop-color:#667075"/>
				<stop  offset="0.6" style="stop-color:#535C63"/>
				<stop  offset="0.7" style="stop-color:#475158"/>
				<stop  offset="0.8" style="stop-color:#434D54"/>
				<stop  offset="1" style="stop-color:#475157"/>
			</linearGradient>
			<path id="outer_24_" style="fill:url(#outer_00000140726370866953222040000004808167755361206418_);" d="M63.3,32
				c0,17.3-14,31.3-31.3,31.3S0.7,49.3,0.7,32S14.7,0.7,32,0.7S63.3,14.7,63.3,32z M32,2.6C15.7,2.6,2.6,15.7,2.6,32
				S15.8,61.4,32,61.4c16.3,0,29.4-13.2,29.4-29.4C61.4,15.7,48.3,2.6,32,2.6z"/>
			
				<linearGradient id="SVGID_1_" gradientUnits="userSpaceOnUse" x1="-70.9026" y1="259.3672" x2="-69.9026" y2="259.3672" gradientTransform="matrix(78.282 65.7569 65.7569 -78.282 -11495.3057 24979.1738)">
				<stop  offset="0" style="stop-color:#0B1F2A"/>
				<stop  offset="0.2" style="stop-color:#333F47"/>
				<stop  offset="0.5" style="stop-color:#777F84"/>
				<stop  offset="0.5" style="stop-color:#81898D"/>
				<stop  offset="0.7" style="stop-color:#B3B8B8"/>
				<stop  offset="0.8" style="stop-color:#D2D5D3"/>
				<stop  offset="0.8" style="stop-color:#DEE0DD"/>
				<stop  offset="1" style="stop-color:#FBFBFB"/>
			</linearGradient>
			<path class="st1" d="M32,2.6C15.7,2.6,2.6,15.7,2.6,32S15.8,61.4,32,61.4c16.3,0,29.4-13.2,29.4-29.4C61.4,15.7,48.3,2.6,32,2.6z
				 M32,59.5C16.8,59.5,4.5,47.2,4.5,32S16.8,4.5,32,4.5S59.5,16.8,59.5,32S47.2,59.5,32,59.5z"/>
			
				<linearGradient id="SVGID_00000018959266252560254850000000677996280430833549_" gradientUnits="userSpaceOnUse" x1="-74.5357" y1="260.3581" x2="-73.5357" y2="260.3581" gradientTransform="matrix(-38.0972 -104.7239 -104.7239 38.0972 24469.0527 -17662.5293)">
				<stop  offset="0" style="stop-color:#E1E3E1;stop-opacity:0.4"/>
				<stop  offset="0.1" style="stop-color:#C1C5C4;stop-opacity:0.4"/>
				<stop  offset="0.3" style="stop-color:#9BA1A2;stop-opacity:0.4"/>
				<stop  offset="0.5" style="stop-color:#7D8487;stop-opacity:0.4"/>
				<stop  offset="0.7" style="stop-color:#687074;stop-opacity:0"/>
				<stop  offset="0.8" style="stop-color:#5B6469;stop-opacity:0"/>
				<stop  offset="1" style="stop-color:#576065;stop-opacity:0"/>
			</linearGradient>
			<path style="fill:url(#SVGID_00000018959266252560254850000000677996280430833549_);" d="M32,63.3c17.3,0,31.3-14,31.3-31.3
				S49.3,0.7,32,0.7S0.7,14.7,0.7,32S14.7,63.3,32,63.3z M32,0c17.6,0,32,14.4,32,32S49.6,64,32,64S0,49.6,0,32S14.4,0,32,0z"/>
			<path class="st3" d="M2.2,32.1C2.2,15.7,15.5,2.2,32,2.2s29.8,13.4,29.8,29.9c0,16.4-13.3,29.7-29.8,29.7S2.2,48.5,2.2,32.1z
				 M11.5,11.5c-5.3,5.3-8.6,12.6-8.6,20.6s3.3,15.3,8.5,20.5c5.3,5.2,12.6,8.5,20.6,8.5s15.3-3.2,20.5-8.5
				c5.3-5.2,8.5-12.5,8.5-20.5s-3.3-15.3-8.5-20.6S40,2.9,32,2.9S16.7,6.2,11.5,11.5z"/>
			
				<linearGradient id="SVGID_00000047780263453199128080000016533952995660171650_" gradientUnits="userSpaceOnUse" x1="-70.5358" y1="260.0093" x2="-69.5359" y2="260.0093" gradientTransform="matrix(48.013 83.1529 83.1529 -48.013 -18215.6875 18357.1758)">
				<stop  offset="0" style="stop-color:#E1E3E1;stop-opacity:0.4"/>
				<stop  offset="0.1" style="stop-color:#C1C5C4;stop-opacity:0.4"/>
				<stop  offset="0.3" style="stop-color:#9BA1A2;stop-opacity:0.4"/>
				<stop  offset="0.5" style="stop-color:#7D8487;stop-opacity:0.4"/>
				<stop  offset="0.7" style="stop-color:#687074;stop-opacity:0"/>
				<stop  offset="0.8" style="stop-color:#5B6469;stop-opacity:0"/>
				<stop  offset="1" style="stop-color:#576065;stop-opacity:0"/>
			</linearGradient>
			<path style="fill:url(#SVGID_00000047780263453199128080000016533952995660171650_);" d="M32,59.6c-7.4,0-14.3-2.9-19.5-8.1
				S4.4,39.4,4.4,32s2.9-14.3,8.1-19.5S24.6,4.4,32,4.4s14.3,2.9,19.5,8.1s8.1,12.1,8.1,19.5s-2.9,14.3-8.1,19.5S39.4,59.6,32,59.6z
				 M32,58.8c7.1,0,13.9-2.8,18.9-7.8c5.1-5.1,7.8-11.8,7.8-18.9s-2.8-13.9-7.8-18.9C45.8,8.1,39.1,5.4,32,5.4s-13.9,2.8-18.9,7.8
				C8,18.1,5.2,24.9,5.2,32S8,45.9,13,50.9C18.1,56,24.9,58.8,32,58.8z"/>
			<path class="st3" d="M56.3,45c-0.5-0.4-19.8-15.7-19.8-15.7L32,3.6c-0.3,0.1-0.7,0.4-0.9,0.8l-3.2,25L8,44.7c0,0-0.4,0.5-0.6,0.8
				c-0.1,0.2-0.1,0.5-0.1,0.8l24.6-10.1l24.6,10.1C56.7,45.8,56.5,45.3,56.3,45z"/>
			<path class="st5" d="M32.2,32.8L32,37.4l22.6,9.1c0.8,0.4,1.4,0.2,2-0.2L32.5,32.7C32.4,32.6,32.2,32.7,32.2,32.8z"/>
			
				<linearGradient id="SVGID_00000050637176634208800640000006302644031754283169_" gradientUnits="userSpaceOnUse" x1="-50.0352" y1="288.9815" x2="-49.0352" y2="288.9815" gradientTransform="matrix(-2.9573 4.8709 4.8709 2.9573 -1511.076 -571.5026)">
				<stop  offset="0" style="stop-color:#27343C"/>
				<stop  offset="1" style="stop-color:#00111E;stop-opacity:0"/>
			</linearGradient>
			<path style="fill:url(#SVGID_00000050637176634208800640000006302644031754283169_);" d="M32.2,32.8c0,0,1.3,2.3,2.8,3.9
				c2.1,2.3,4.9,3.9,4.9,3.9l14.7,5.9c0.8,0.4,1.4,0.2,2-0.2L32.5,32.7C32.4,32.6,32.2,32.7,32.2,32.8z"/>
			<path class="st7" d="M56.5,45.4c0-0.1-0.1-0.2-0.2-0.4L35.7,29.9l-2.8,1.8c0,0,0.2,0.1,0.3,0c0.3-0.1,0.9-0.2,1.5,0
				C35.2,31.9,56.5,45.5,56.5,45.4L56.5,45.4z"/>
			<path class="st8" d="M55.8,44.5L36.6,29.3l-0.9,0.6l20.6,15.2C56.2,44.9,56,44.7,55.8,44.5z"/>
			<path class="st5" d="M32.5,31.3l-0.1,0.1c0,0,0,0.2,0.2,0.1c0.1-0.1,3-1.6,4-2.2l-3.5-24C33,4.4,32.6,4,31.9,3.7l0.4,27.8
				L32.5,31.3z"/>
			<path class="st7" d="M30.8,5.3v1.3l-2.2,22.1c0,0.3,0.1,0.6,0.4,0.8l1.3,1l0.9-24.4l0.1-1.9C31,4.4,30.9,4.8,30.8,5.3z"/>
			<path class="st7" d="M29.6,30.9l-1.2-1L8.1,44.6c0,0-0.6,0.4-0.7,0.8L8.1,45l21.3-13.4C29.8,31.4,29.9,31.2,29.6,30.9z"/>
			<path class="st5" d="M31.7,32.8c0-0.1-0.1-0.2-0.2-0.1L7.3,46.4c0.6,0.4,1.2,0.5,2,0.2l22.6-9.1L31.7,32.8z"/>
			
				<linearGradient id="SVGID_00000032649497460534544030000003854635441744266407_" gradientUnits="userSpaceOnUse" x1="-94.7667" y1="264.8696" x2="-93.7667" y2="264.8696" gradientTransform="matrix(-4.8709 -7.8282 -7.8282 4.8709 1651.4351 -2002.8877)">
				<stop  offset="0" style="stop-color:#02131F"/>
				<stop  offset="0.1" style="stop-color:#02131F"/>
				<stop  offset="0.9" style="stop-color:#02131F;stop-opacity:0"/>
				<stop  offset="1" style="stop-color:#02131F;stop-opacity:0"/>
			</linearGradient>
			<path style="fill:url(#SVGID_00000032649497460534544030000003854635441744266407_);" d="M32.4,31.4l0.1-0.1L32.4,31.4
				c0,0,0,0.1,0.1,0.1h0.1c0.1-0.1,3-1.6,4-2.2l-0.4-2.9L33.1,5.3c0-0.4-0.1-0.7-0.3-0.9c0,0,1.5,20.2,1.5,22.4
				C34.3,29.7,32.4,31.4,32.4,31.4z"/>
			
				<linearGradient id="SVGID_00000090293477867359596090000016689663897727757994_" gradientUnits="userSpaceOnUse" x1="-74.7905" y1="287.6396" x2="-73.7905" y2="287.6396" gradientTransform="matrix(-7.3063 2.0875 2.0875 7.3063 -1114.9146 -1909.1239)">
				<stop  offset="0" style="stop-color:#02131F;stop-opacity:0.8"/>
				<stop  offset="0.2" style="stop-color:#02131F;stop-opacity:0.8"/>
				<stop  offset="0.9" style="stop-color:#02131F;stop-opacity:0"/>
				<stop  offset="1" style="stop-color:#02131F;stop-opacity:0"/>
			</linearGradient>
			<path style="fill:url(#SVGID_00000090293477867359596090000016689663897727757994_);" d="M31.7,32.8c0-0.1-0.1-0.2-0.2-0.1
				L7.3,46.4c0.6,0.4,1.2,0.5,2,0.2l22.6-9.1L31.7,32.8z"/>
			
				<linearGradient id="SVGID_00000036249173062843718730000006600195742639880602_" gradientUnits="userSpaceOnUse" x1="-146.6223" y1="262.1974" x2="-145.6223" y2="262.1974" gradientTransform="matrix(-1.0438 -2.6094 -2.6094 1.0438 551.9307 -614.3638)">
				<stop  offset="0" style="stop-color:#02131F;stop-opacity:0.8"/>
				<stop  offset="0.1" style="stop-color:#02131F;stop-opacity:0.8"/>
				<stop  offset="1" style="stop-color:#02131F;stop-opacity:0"/>
			</linearGradient>
			<path style="fill:url(#SVGID_00000036249173062843718730000006600195742639880602_);" d="M9.3,46.5l22.6-9.1L31.7,33
				c-0.4,1.2-1.1,2.5-3,3.5c-1.4,0.8-14.8,7.4-19.6,9.7c-0.3,0.2-0.7,0.3-0.9,0.4C8.6,46.8,8.9,46.7,9.3,46.5z"/>
			
				<linearGradient id="SVGID_00000167386197157276805000000013972664800696629660_" gradientUnits="userSpaceOnUse" x1="-80.9261" y1="294.292" x2="-79.9261" y2="294.292" gradientTransform="matrix(-5.9146 0.6958 0.6958 5.9146 -647.8275 -1667.1053)">
				<stop  offset="0" style="stop-color:#02131F"/>
				<stop  offset="0.3" style="stop-color:#02131F"/>
				<stop  offset="0.8" style="stop-color:#02131F;stop-opacity:0"/>
				<stop  offset="1" style="stop-color:#02131F;stop-opacity:0"/>
			</linearGradient>
			<path style="fill:url(#SVGID_00000167386197157276805000000013972664800696629660_);" d="M32.5,31.3l-0.1,0.1c0,0,0,0.2,0.2,0.1
				c0.1-0.1,3-1.6,4-2.2l-3.5-24C33,4.4,32.6,4,31.9,3.7l0.4,27.8L32.5,31.3z"/>
			
				<linearGradient id="SVGID_00000144301467605127166340000007051897554817681329_" gradientUnits="userSpaceOnUse" x1="-84.224" y1="310.5971" x2="-83.224" y2="310.5971" gradientTransform="matrix(-4.0011 0.5219 0.5219 4.0011 -463.3737 -1181.6117)">
				<stop  offset="0" style="stop-color:#27343C"/>
				<stop  offset="0.4" style="stop-color:#27343C"/>
				<stop  offset="1" style="stop-color:#3B474E;stop-opacity:0"/>
			</linearGradient>
			<path style="fill:url(#SVGID_00000144301467605127166340000007051897554817681329_);" d="M32.5,31.3l-0.1,0.1c0,0,0,0.2,0.2,0.1
				c0.1-0.1,3-1.6,4-2.2l-3.5-24C33,4.4,32.6,4,31.9,3.7l0.4,27.8L32.5,31.3z"/>
			
				<linearGradient id="SVGID_00000033348224251363214600000015709779597279101361_" gradientUnits="userSpaceOnUse" x1="-69.8129" y1="258.0063" x2="-68.8129" y2="258.0063" gradientTransform="matrix(48.5348 28.0076 28.0076 -48.5348 -3838.1272 14510.4131)">
				<stop  offset="0" style="stop-color:#24303A;stop-opacity:0"/>
				<stop  offset="0" style="stop-color:#25323B;stop-opacity:0"/>
				<stop  offset="0.1" style="stop-color:#27343C"/>
				<stop  offset="1" style="stop-color:#27343C"/>
			</linearGradient>
			<path style="fill:url(#SVGID_00000033348224251363214600000015709779597279101361_);" d="M5.1,44.4C4.4,42.8,0.4,35,4.8,20H3.1
				c-0.9,3-1.6,4.8-2,7.5c0,0-0.2,1-0.3,2.1S0.7,31.3,0.7,32c0,6,1.5,9.5,1.5,9.5c1.6,5,4.4,9.5,8.2,12.9c3.3,2.9,8.4,5.1,12.6,5.9
				C22.3,60.2,10.3,55.1,5.1,44.4z"/>
			
				<linearGradient id="SVGID_00000132792222665737348430000004533306263004390020_" gradientUnits="userSpaceOnUse" x1="-96.0084" y1="251.7027" x2="-95.0084" y2="251.7027" gradientTransform="matrix(0 -8.3501 -8.3501 0 2133.6873 -764.2778)">
				<stop  offset="0" style="stop-color:#A5ABAF"/>
				<stop  offset="0.3" style="stop-color:#A5ABAF"/>
				<stop  offset="1" style="stop-color:#A5ABAF;stop-opacity:0"/>
			</linearGradient>
			<path style="fill:url(#SVGID_00000132792222665737348430000004533306263004390020_);" d="M32.4,32.6h-0.9c0.1,0,0.2,0,0.2,0.1
				l0.2,4.6H32l0.2-4.6C32.2,32.6,32.3,32.5,32.4,32.6z"/>
			
				<linearGradient id="SVGID_00000071536485673452208970000006413791761157471404_" gradientUnits="userSpaceOnUse" x1="-70.8342" y1="261.053" x2="-69.8342" y2="261.053" gradientTransform="matrix(0 106.1156 106.1156 0 -27654.1426 7518.9131)">
				<stop  offset="0" style="stop-color:#DEE0DD"/>
				<stop  offset="0" style="stop-color:#C5C9C7"/>
				<stop  offset="0" style="stop-color:#9EA4A5"/>
				<stop  offset="0" style="stop-color:#82898C"/>
				<stop  offset="0" style="stop-color:#71797D"/>
				<stop  offset="0" style="stop-color:#6B7378"/>
				<stop  offset="0.2" style="stop-color:#333F47"/>
				<stop  offset="0.5" style="stop-color:#27343C"/>
				<stop  offset="0.8" style="stop-color:#333F47"/>
				<stop  offset="1" style="stop-color:#434D54"/>
			</linearGradient>
			<path style="fill:url(#SVGID_00000071536485673452208970000006413791761157471404_);" d="M42,2.3c10.5,4,20.4,15,20.4,28.9
				C62.4,48,49,61.7,32,61.7v1.6c17,0,31.3-14,31.3-31.3C63.3,18.2,54.5,6.6,42,2.3z"/>
			
				<linearGradient id="SVGID_00000173150098656507710760000000049120669238511248_" gradientUnits="userSpaceOnUse" x1="-69.7872" y1="264.4394" x2="-68.7872" y2="264.4394" gradientTransform="matrix(-23.4846 34.4441 34.4441 23.4846 -10690.0059 -3798.406)">
				<stop  offset="0" style="stop-color:#27343C"/>
				<stop  offset="0.7" style="stop-color:#27343C"/>
				<stop  offset="0.7" style="stop-color:#2B373F"/>
				<stop  offset="0.7" style="stop-color:#36424A"/>
				<stop  offset="0.7" style="stop-color:#49545B"/>
				<stop  offset="0.8" style="stop-color:#646D73;stop-opacity:0"/>
				<stop  offset="0.8" style="stop-color:#868D92;stop-opacity:0"/>
				<stop  offset="0.8" style="stop-color:#B0B5B8;stop-opacity:0"/>
				<stop  offset="0.8" style="stop-color:#E1E3E4;stop-opacity:0"/>
				<stop  offset="0.8" style="stop-color:#FFFFFF;stop-opacity:0"/>
				<stop  offset="1" style="stop-color:#FFFFFF;stop-opacity:0"/>
			</linearGradient>
			<path style="fill:url(#SVGID_00000173150098656507710760000000049120669238511248_);" d="M58.8,20.2C51.8,4.1,36,3.2,35.1,3.1H35
				c12.1,2.2,19.8,10.1,22.5,18.4v0.1c1.2,3.2,1.8,6.6,1.9,10.3c0.1,3.5-0.7,7.4-2.2,11C57.1,43.4,57,44,56.9,44h1.6
				C63.3,35,61.2,25.9,58.8,20.2z"/>
			<path class="st19" d="M2.2,32.1C2.2,15.7,15.5,2.2,32,2.2s29.8,13.4,29.8,29.9c0,16.4-13.3,29.7-29.8,29.7S2.2,48.5,2.2,32.1z
				 M11.5,11.5c-5.3,5.3-8.6,12.6-8.6,20.6s3.3,15.3,8.5,20.5c5.3,5.2,12.6,8.5,20.6,8.5s15.3-3.2,20.5-8.5
				c5.3-5.2,8.5-12.5,8.5-20.5s-3.3-15.3-8.5-20.6S40,2.9,32,2.9S16.7,6.2,11.5,11.5z"/>
			<path class="st20" d="M7.9,44.8l20.4-14.7c1.1,0.6,2.9,1.4,3.1,1.4c0.2,0.1,0.2-0.1,0.2-0.1l-2.5-2.1c-0.3-0.2-0.4-0.5-0.4-0.8
				l2.4-24.1C31,4.5,31,4.7,30.9,4.8c-0.1,0.2-0.1,0.3-0.1,0.5l-3.5,24.1L8.1,44.5C8,44.6,7.9,44.7,7.9,44.8z"/>
		</g>
	</g>
</g>
</svg>
