<?xml version="1.0" encoding="utf-8"?>
<!-- Generator: Adobe Adobe Illustrator 29.2.0, SVG Export Plug-In . SVG Version: 6.00 Build 0)  -->
<svg version="1.1" id="Layer_1" xmlns="http://www.w3.org/2000/svg" xmlns:xlink="http://www.w3.org/1999/xlink" x="0px" y="0px"
	 width="671.1px" height="255.9px" viewBox="0 0 671.1 255.9" style="enable-background:new 0 0 671.1 255.9;" xml:space="preserve"
	>
<style type="text/css">
	.st0{fill:#F8EE3F;}
	.st1{fill:#CC2729;}
</style>
<path class="st0" d="M313.3,253.6c0.7,0.1,1.4,0.3,2.1,0.4L313.3,253.6z M319.1,254.5c0.8,0.1,1.6,0.2,2.5,0.3L319.1,254.5z
	 M325.2,255.3c0.8,0.1,1.6,0.1,2.4,0.2L325.2,255.3z M328.5,255.5c0.7,0,1.4,0.1,2,0.1L328.5,255.5z M331.5,255.7
	c0.8,0,1.6,0.1,2.4,0.1L331.5,255.7z M334.7,255.8c1.8,0,3.6,0,5.4,0L334.7,255.8z M341,255.8c0.8,0,1.7-0.1,2.5-0.1L341,255.8z
	 M344.3,255.7c0.7,0,1.4-0.1,2.2-0.1L344.3,255.7z M347.2,255.5c0.8-0.1,1.6-0.1,2.4-0.2L347.2,255.5z M353.6,254.8
	c0.6-0.1,1.2-0.1,1.8-0.2L353.6,254.8z M464,51.8c-0.7-0.4-1.3-0.7-2-1L464,51.8z M457.4,49.4c-0.8-0.2-1.7-0.3-2.5-0.4L457.4,49.4z
	 M614.5,172.1l-0.5,0.1L614.5,172.1z M27.9,136.5c-2.9-2.7-5.1-6-6.4-9.7c-1.1-3.1-2.5-7-2.5-10.3c0.1-14.9,8.8-25.9,18.1-31.1
	c4.2-2.3,5.8-3.9,6.5-4.7c-0.3-0.1-0.6-0.2-1-0.3c-12.7,0-19.3-4.9-22.5-9.1c-3-3.9-4.6-9-4.6-14.5c0-2.7,0.4-5.5,1.1-8.4
	c3.6-5.9,7-4.3,9.1-1.3c1.3,1.9,10.4,8.4,21.7,9.4c8.2,0.8,12.6,4.8,14.9,8C65,68.2,66,72.6,66,76.4c0,1.5-0.2,3-0.5,4.3
	c-1.2,5-6.5,9.5-13.8,15.2l-4.2,3.4c-6.1,5.3-9.4,11.2-9.4,16.3c0,1.3,0.2,2.5,0.6,3.6c0.2,0.5,0.4,0.9,0.6,1.3
	c2.7,4.6,10.4,7.5,21.5,3.6c5.2-1.8,15.1-8,21.1-14c7.1-7.1,16.6-8.8,25.8-9.5c7.9-0.6,12.8-2.5,16.3-6.4
	c10.2-11.5,20-13.1,29.1-13.8c3.5-0.3,3.7-0.5,4.2-1.1c5.1-6.7,10.2-10.3,14.9-12.4c3.5-1.6,6.8-2.3,9.4-2.9l3.2-0.8l0.8-0.3
	c5.1-1.6,9.1-3,19.4-10l0.4-0.3l0,0l0.4-0.3l0,0l0.4-0.3l0,0l0.4-0.3l0,0l0.4-0.2l0,0l0.4-0.2l0,0l0.4-0.2l0,0l0.4-0.2l0,0l0.4-0.2
	l0,0l0.4-0.2l0,0l0.4-0.2l0,0l0.4-0.2l0.5-0.2l0,0l0.4-0.1l0,0l0.4-0.1l0,0l0.4-0.1l0,0l0.4-0.1l0,0l0.4-0.1l0,0l0.4-0.1l0,0
	l0.4-0.1l0,0l0.4-0.1l0,0l0.4-0.1l0,0l0.4,0l0,0l0.4,0l0,0l0.4,0l0,0l0.4,0l0,0l0.4,0l0,0l0.4,0l0.5,0h0l0.4,0h0.5l0.4,0l0,0h0
	c0.3,0,0.6,0,0.9,0l0.4,0l0.1,0l0.4,0l0.1,0l0.4,0l0.1,0l0.4,0l0.1,0l0.4,0l0.1,0l0.4,0l0.1,0l0.4,0.1l0.1,0l0.4,0.1l0.1,0l0.4,0.1
	l0.1,0l0.4,0.1l0.1,0c0.6,0.1,1.2,0.3,1.8,0.4L228,50l0.1,0c0.6,0.2,1.2,0.3,1.8,0.5l0.3,0.1l0.1,0c1.2,0.4,2.3,0.8,3.4,1.2L234,52
	l0.4,0.2C256.6,22,291.7,2,331.5,0.1v0c2-0.1,3.9-0.1,5.9-0.1c1.3,0,2.6,0,3.9,0.1c0.6,0,1.3,0,1.9,0.1h0c0.6,0,1.3,0.1,1.9,0.1
	c38.6,2.3,72.6,21.8,94.5,50.8c3.1-1.1,6.5-1.9,10-2.1l0.1,0l0.3,0l0.3,0l0.1,0l0.1,0l0.3,0l0.1,0l0.3,0l0.1,0l0.3,0h0.1l0.3,0h0.1
	l0.4,0l0.3,0l0.1,0l0.3,0l0.1,0l0.3,0l0.1,0l0.4,0l0.1,0l0.4,0l0.1,0c0.8,0.1,1.7,0.2,2.5,0.4l0.4,0.1l0,0l0.4,0.1l0.1,0l0.4,0.1
	l0,0l0.4,0.1l0,0l0.4,0.1l0,0l0.4,0.1l0,0l0.4,0.1l0,0l0.4,0.1l0.4,0.1l0,0l0.4,0.1l0,0l0.4,0.2l0,0c0.7,0.3,1.3,0.6,2,1l0,0
	l0.4,0.2l0,0l0.4,0.2l0,0l0.4,0.2l0,0l0.4,0.2v0l0.4,0.3c7.2,4.9,11.3,7,14.8,8.4c1.6,0.6,3.1,1.1,4.6,1.6l0.8,0.3l3.3,0.8
	c1.8,0.4,3.8,0.8,6,1.5c5.5,1.8,12,5.2,18.3,13.7c0.5,0.6,0.7,0.9,4.2,1.1c9.2,0.7,18.9,2.3,29.1,13.8c3.4,3.9,8.3,5.8,16.2,6.4
	c9.2,0.7,18.7,2.4,25.8,9.5c6.1,6,16,12.2,21.1,14c11.1,3.9,18.9,1,21.5-3.6c0.6-1,1-2,1.2-3.2c0.1-0.6,0.2-1.2,0.2-1.8
	c0-5-3.4-10.9-9.4-16.3l-0.8-0.6l-3.4-2.8c-7.3-5.7-12.6-10.2-13.8-15.2c-0.3-1.3-0.5-2.7-0.5-4.3c0-3.8,1-8.2,3.6-11.9
	c2.3-3.2,6.8-7.2,14.9-8c11.3-1,20.4-7.5,21.7-9.4c2.1-3,5.5-4.7,9.1,1.3c0.8,2.9,1.1,5.7,1.1,8.4c0,5.6-1.5,10.6-4.6,14.5
	c-3.2,4.2-9.7,9.1-22.5,9.1c-0.3,0-0.6,0.1-1,0.3c0.6,0.8,2.2,2.4,6.5,4.7c9.4,5.1,18,16.2,18.1,31.1c0,3.3-1.4,7.2-2.5,10.3
	c-1.2,3.3-3,6.2-5.4,8.8c-0.3,0.3-0.7,0.7-1,1c-5.3,4.9-14,8.7-28.7,7.9c-1.5-0.1-3.1-0.2-4.6-0.4c-0.4,7.4-2.4,16.1-5.2,20.6
	c-0.9,1.4-1,2.3-1,2.8c0,0.2,0,0.3,0,0.4c0.1,0,6.5,3.8,6.5,3.8l1,0.5c0,0,0.6,0.3,0.7,0.3c0.1,0,2.2-0.1,2.2-0.1l0.4-0.1l0,0
	c4-0.4,10.1-2.3,12.7,4.9c0.7,1.9,1.1,3.6,1.5,5.1c0.8,3,1.5,5.3,4.1,7.3c0,0,1.3-1.1,2.8-2.5c1.2-1,2.3-2.1,3.4-3.1
	c1.9-1.9,5.3-0.9,7.7,0c2.5,0.9,5.6,3.1,7.8,4.3c2.2,1.2,3.4,2.8,4,4.7c0.7,1.9,2.2,3.1,4.5,4.3c2.2,1.3,5.5,5.4,5.5,10.9
	c0,0.8,0.1,1.6,0.3,2.3c0.2,0.5,0.4,1,0.7,1.6c3.1,6.3,0.6,9.5-1.2,10.9c-2.4,1.8-6.8,2.6-10.8,1.9l0,1l-5.9-0.8
	c-2.3-0.3-5.3,0.3-7.1,0.7l-0.4,0.1c-4.2,0.8-9.7-0.6-12.8-5.6c-0.1-0.2-0.2-0.4-0.3-0.6c-1.6-2.8-4-5.4-5.2-6.1
	c-1.7,0.5-4.5,1.1-7.8,0.8c-3-0.3-6.5-1.5-10.1-4.4c-0.6-0.5-1.2-1-1.8-1.6c-5.2-5.2-12.1-6.3-16.5-5.7l-2.6,0.5
	c-5.3,1-12,2.2-18.2-1.6c-1.5-0.9-3.7-1.9-5.9-2.8c-5.6-2.4-11.4-4.9-12.2-10.2c-0.1-0.9-1.2-2.7-2-4c-0.7-1.2-1.5-2.5-2.2-4
	c-0.6-1.4-1-2.8-1.1-4.3c-1.8,0.5-3.7,0.7-5.6,0.6c-0.7,0-1.3-0.1-2-0.2l-2.4-0.4c-4.1-0.7-12.7-2.1-15.4-1.1
	c-5.4,2-22.5,2.9-27.2,1.8c0,0-1.7-0.4-3.4-0.7c-1.6,1.6-3.3,3.1-5.1,4.5c3.4,0.2,6.4-0.2,8.5,0.3l4.3,1.1c1.4-0.4,4.7-0.4,6.6-0.2
	l5,0.4l5.8,0.6c2.8,0.6,5.7,1.8,5.2,7.2c-0.2,1.7-1.1,4-2.5,5.4c-0.8,0.9-3.8,5.2-4.4,6.6l-0.2,0.4c-1.2,2.5-2.9,4.8-8,4.8
	c-0.6,0-1.3,0-1.9,0.1c-0.2,0.4-0.6,1.2-0.6,1.2c-1.1,2.6-2.8,6.2-5.9,8.3l-0.8,0.6c-2.5,1.8-6.7,4.8-13.2,2.4l-2.2-0.8
	c-5.6-2-14.1-5.1-18.4-7.4l-0.6-0.3c-4-2.2-4.9-2.6-6.3-2.4l-0.8,0.1c-3.1,0.4-8.8,1.2-12.8-5.4l-0.4-0.6
	c-18.9,25.9-47.3,44.5-80.1,50.6l-0.1,0c-1.1,0.2-2.2,0.4-3.4,0.6l-0.4,0.1l-1.5,0.2c-0.6,0.1-1.2,0.2-1.8,0.2l-1.1,0.1l-1.7,0.2
	l-1.2,0.1c-0.8,0.1-1.6,0.1-2.4,0.2l-0.7,0c-0.7,0-1.4,0.1-2.2,0.1l-0.8,0c-0.8,0-1.7,0.1-2.5,0.1l-0.9,0c-1.8,0-3.6,0-5.4,0l-0.8,0
	c-0.8,0-1.6-0.1-2.4-0.1l-1-0.1c-0.7,0-1.4-0.1-2-0.1l-0.9-0.1c-0.8-0.1-1.6-0.1-2.4-0.2l-1.2-0.1l-1.6-0.2l-0.9-0.1
	c-0.8-0.1-1.7-0.2-2.5-0.3l-1-0.1l-1.8-0.3l-0.9-0.2c-0.7-0.1-1.4-0.2-2.1-0.4l-1.5-0.3l-0.8-0.2c-1-0.2-2.1-0.5-3.1-0.7l-0.3-0.1
	l-1.6-0.4l-0.8-0.2c-1-0.3-1.9-0.5-2.9-0.8l-0.3-0.1c-28.7-8.3-53.3-26.4-69.9-50.4l-2.2,3.3c-3.9,6.6-9.7,5.8-12.8,5.4l-0.8-0.1
	c-1.4-0.2-2.4,0.2-6.3,2.4l-0.6,0.3c-4.3,2.3-12.7,5.4-18.4,7.4l-2.2,0.8c-6.4,2.3-10.6-0.6-13.1-2.4l-0.9-0.6
	c-3.1-2.1-4.8-5.7-5.9-8.3c0,0-0.4-0.8-0.6-1.2c-0.6-0.1-1.3-0.1-1.9-0.1c-5,0-6.8-2.3-7.9-4.8l-0.2-0.4c-0.7-1.4-3.6-5.7-4.5-6.6
	c-1.4-1.4-2.4-3.8-2.5-5.4c-0.5-5.4,2.5-6.6,5.2-7.2l5.8-0.6l5.1-0.4c1.9-0.2,5.2-0.2,6.6,0.2l4.3-1.1c2.1-0.5,5.1-0.1,8.5-0.3
	c-1.8-1.4-3.5-2.9-5.1-4.5c-1.6,0.3-3.4,0.7-3.4,0.7c-4.7,1.1-21.8,0.1-27.2-1.8c-2.7-1-11.3,0.4-15.4,1.1l-2.5,0.4
	c-2.5,0.4-5.1,0.3-7.5-0.4c-0.1,3.1-1.8,5.9-3.2,8.3c-0.8,1.4-1.9,3.1-2,4c-0.7,5.3-6.6,7.8-12.2,10.2c-2.2,0.9-4.3,1.9-5.9,2.8
	c-6.1,3.8-12.8,2.5-18.2,1.6l-2.6-0.5c-4.3-0.7-11.2,0.4-16.5,5.7c-8,8-16,6.2-19.6,5.2c-1.2,0.7-3.7,3.3-5.2,6.1
	c-3,5.5-8.8,7.1-13.2,6.2l-0.4-0.1c-1.8-0.4-4.8-1-7.1-0.7l-6,0.8l0.1-1c-4.1,0.7-8.4-0.1-10.9-1.9c-1.8-1.3-4.3-4.5-1.1-10.9
	c0.7-1.5,1-2.6,1-4c0-5.5,3.2-9.6,5.4-10.9c2.4-1.2,3.9-2.5,4.5-4.3c0.6-1.9,1.8-3.4,4-4.7c2.2-1.2,5.3-3.4,7.8-4.3
	c2.5-0.9,5.9-1.9,7.8,0c1.9,1.8,6.2,5.6,6.2,5.6c4-3.1,3.6-6.6,5.6-12.4c2.6-7.3,8.7-5.3,12.7-4.9l0.5,0.1c0,0,2.1,0.1,2.2,0.1
	c0.1-0.1,0.7-0.3,0.7-0.3l1-0.5c0,0,6.4-3.8,6.5-3.8c0-0.1,0-0.2,0-0.4c0-0.5-0.2-1.4-1-2.8c-2.9-4.4-4.9-13.2-5.2-20.6
	c-1,0.1-2,0.2-3,0.3C42.6,145.5,33.3,141.5,27.9,136.5L27.9,136.5z"/>
<g>
	<path class="st1" d="M66.2,138.5c0,0-1.3,12.6,4.4,23.6c0,0,4.2,5.9-0.2,9.8l-8.7,5c0,0-1.2,0.9-5,0.6c0,0-5.3-1.3-7.1,1
		c0,0-1.5,4.5-3.5,8.3c0,0-3.9,9.1-10.5,12c0,0-5.2,1.2-6.8,5.7c0,0-1.7,3.2-5,3.3c0,0-2.5,0.8-4.2,6.4c0,0-0.9,3.6-0.9,6.4
		c0,0,4.3-0.6,7.1,0.4c0,0,6.8,2.3,9.9-3.3c0,0,5.9-10.1,10.3-8.6c0,0,8.8,2.9,15-3.5c0,0,8.5-9.3,20.6-7.4c0,0,13.6,2.8,17.8-0.4
		c0,0,8.6-4.5,11.8-5.6c0,0,3.9-1.2,4.3-5.5c0,0,2.4-6.1,4.1-8.1l-6.5-0.1c0,0-5.9,9.9-15.9,12.9c0,0-5.5,2.2-16.4,0.4
		c0,0-15.7-3.6-29.6,11.4c0,0-1.9,2.7-4.6,1.6c0,0,7.6-13,24.4-16.1c0,0,5.5-1.2,10.1-0.4c0,0,22.6,0.7,33.1-21.6
		c0,0-1.1-19,3.9-23.4c0,0,1.9-0.6,1.5,3.1c0,0-3.4,19.9,3,23.7c0,0,3.7,2.9,10.7,1.9c0,0,10.5-2.5,19-1c0,0,13.1,3.1,24.4,1.7
		c0,0-2.9-4.5-2.4-9.9c0,0,1.6-3.8,3.5-1.4c0,0,4.3,14.3,16.2,18.6c0,0,10.6,3.9,10.4,17.3c0,0-1.6,1.8-15.7,6.8
		c0,0-5.3,1.7-6.9-2.3c0,0-6.8-14.5-12.7-14.1l-11.1,0.9c0,0-3.8,1-1,4c0,0,3.8,5,5.3,8.1c0,0,0.5,2.6,4,2c0,0,4.9-2.4,7.7,6.7
		c0,0,2.6,4.6,6.9,6.1c0,0,4,1.3,7.8-0.8c0,0,18.3-6.7,21.5-9.1c0,0,4-2.2,7.1-1.2c0,0,5.5,1.3,7.7-3l5.7-8.8c0,0,1.2-2.2,1.1-4.9
		c0,0,0.5-2.7-1.8-5.4c0,0-2.1-2.3-2.5-3.9l-4-9.5c0,0-1.6-2.5-3.4-3.6l-5.4,0.4c0,0,3.7,9.5,6.4,13.4c0,0,3.7,5.6,3.5,9.2
		c0,0-0.2,2.5-1.2,3.6c0,0-1.2,2-1.7,3c0,0-1.6,3.5-3,4.3c0,0-2.3,1.4-2.9,1.4c0,0-1,0.3-0.3-1.5c0,0,3-6.4,2.8-9.8
		c0,0,0.6-3.5-1.9-5.6c0,0-5.9-9.3-6.7-12.1c0,0-1.8-3.7-2.8-4.3c0,0-2.1-2.7,1.3-4c0,0,8.3-1.9,9.7-2.9c0,0,4-1.2,6.6-9.5
		c0,0,3.6-9.6,3.5-15.6c0,0,7,13.4-4.1,27.1c0,0,8.8,2.6,12.4,0c0,0,10.9-1.6,13.1-2.2c0,0,2.8-0.7,1.2,1.3c0,0-3.3,4.7-3.6,7.8
		c0,0-0.2,2.4-2.2,3.9c0,0-6.2,4.4-6.8,8.5c0,0-1.3,4,1.4,3.1c0,0,3.7-1.7,5,0c0,0,0.4,0.2-1.1,1.8c0,0-3.7,3.3-4,7.6
		c0,0,0.7,5,2,6.7c0,0,1.7,2.3,4.3,1.6c0,0,0.7-0.6,2-0.2c0,0,1.3,0,4.8-1.2c0,0,5.2-1.4,6.9-2c0,0,6.6-2.4,9.9-2.2
		c0,0,2.1-0.2,4.8,0.3c0,0,8.3,0.9,13.8-5.2c0,0,4.2-3.3,5.6-0.1c0,0,10.1,13.5,26.4,10c0,0-13-5.3-16.4-12.6c0,0-0.4-6.2-7.3-14.8
		c0,0-2.1-2.8-0.1-3.6c0,0,1.2-0.9,3.7,1.7c0,0,6.5,6.2,8.8,11.9c0,0,8,12.1,19.6,8.1c0,0-9.1-3.5-13.4-10c0,0-2.6-8.8-11.5-15.4
		c0,0-0.3-9.9-4.5-15.5c0,0-2.1-9.3-2.7-11.5c0,0-2.2-8.2-2.2-10.5c0,0,0.7-10.7-6.2-19c0,0-4.6-8.9-11.8-15.1c0,0-5.5-6.8-9.5-10.9
		c0,0-5.4-6.3-17-14.5c0,0-5.3-3.8-9.2-8c0,0-20.6-14.8-35.5-2.9c0,0-10.3,7-18.9,9.2c0,0-17.6,2.1-25.2,14.3c0,0-0.6,2.3-7.8,3.1
		c0,0-15.6-1.9-27.1,13.5c0,0-5.3,5.2-15.9,6.5c0,0-17.3-1.8-28.5,11.5c0,0-28.3,24.7-45.2,8.7c0,0-8.8-8.3,1.3-23.3
		c0,0,6.3-7.7,17.2-15.7c0,0,8.8-6.2,4.8-15.8c0,0-2.1-9.3-15.3-9.5c0,0-16.5-3.2-23.2-11.5c0,0-7.5,26.3,21.8,25.8
		c0,0,7.6,1.1,5,7.2c0,0-3.7,5.2-8.8,7.1c0,0-8.8,3.9-12.8,16.7c0,0-8.9,22.5,12.8,31.2C47.9,140.9,57.6,140,66.2,138.5L66.2,138.5z
		 M24.3,191.6c1.2-1,2.9-1.5,4.4-1.2c3.5,0.7,1.4,3.7,1.4,3.7c-1.4,2.6-6,7.1-6,7.1c-4.1,3.1-7.3-0.6-7.3-0.6c-3-3,0.9-4.4,0.9-4.4
		C20.1,195.3,24.3,191.6,24.3,191.6z M15.6,205.7c0,0,1.3,0.9,0.6,2.8c0,0-3.2,8.8-3.1,11.8c0,0-7.2,1.3-8.1-2.3c0,0-0.2-1.4,1-3.3
		c0,0,1.2-1.8,1.5-5.2c0,0-0.1-8.5,5.4-6.2C14,203.8,14.8,204.7,15.6,205.7L15.6,205.7z M267.7,187.7c-1.3,0-1.6-0.5-1.4-1.9
		c0.8-3.9,3.9-5.5,3.9-5.5c5.8-3.5,6.5,0,6.5,0c1.1,6.2-3.8,7-3.8,7C271.9,187.6,267.7,187.7,267.7,187.7z M285.2,160.1
		c0.1-2.9,0.4-9.4-2.6-11.7c-1.1-0.9-5.4-5.6-5.4-5.6c-0.7-1.1-1.2-1.2-1.2-1.2c-0.9-0.1-2,2-2,2c-3.1,5.9-6.1,5.2-6.1,5.2
		c0-1.1,0.7-2.3,0.7-2.3c1.5-2.9,2.9-5.8,4.4-8.6c0.4-1,0.9-2.4,0.9-2.4c3-4.6,5.8-1.1,5.8-1.1c1.2,2.4,7.9,10.3,7.9,10.3
		c1.5,1.8,1.6,3.6,1.6,3.6C290.7,159.2,285.2,160.1,285.2,160.1L285.2,160.1z M224.1,94.6c-0.9-1.6-0.5-3.3,0.4-4.9
		c2.1-3.1,4,0.3,4,0.3c7.1,9.9,1.9,24.7,1.9,24.7C229.6,101.1,224.1,94.6,224.1,94.6L224.1,94.6z M604.9,138.5
		c0,0,1.3,12.6-4.4,23.6c0,0-4.2,5.9,0.2,9.8l8.7,5c0,0,1.2,0.9,5,0.6c0,0,5.3-1.3,7.1,1c0,0,1.6,4.5,3.5,8.3c0,0,4,9.1,10.5,12
		c0,0,5.2,1.2,6.8,5.7c0,0,1.7,3.2,5,3.3c0,0,2.5,0.8,4.2,6.4c0,0,0.9,3.6,0.9,6.4c0,0-4.3-0.6-7.1,0.4c0,0-6.8,2.3-9.9-3.3
		c0,0-5.9-10.1-10.3-8.6c0,0-8.8,2.9-15-3.5c0,0-8.5-9.3-20.6-7.4c0,0-13.6,2.8-17.8-0.4c0,0-8.6-4.5-11.8-5.6c0,0-3.9-1.2-4.3-5.5
		c0,0-2.4-6.1-4.1-8.1l6.5-0.1c0,0,5.9,9.9,15.9,12.9c0,0,5.5,2.2,16.4,0.4c0,0,15.7-3.6,29.6,11.4c0,0,1.9,2.7,4.6,1.6
		c0,0-7.6-13-24.4-16.1c0,0-5.5-1.2-10.1-0.4c0,0-22.6,0.7-33.1-21.6c0,0,1.1-19-3.9-23.4c0,0-1.9-0.6-1.5,3.1c0,0,3.4,19.9-3,23.7
		c0,0-3.7,2.9-10.7,1.9c0,0-10.5-2.5-19-1c0,0-13.1,3.1-24.4,1.7c0,0,2.9-4.5,2.4-9.9c0,0-1.6-3.8-3.5-1.4c0,0-4.3,14.3-16.2,18.6
		c0,0-10.6,3.9-10.4,17.3c0,0,1.6,1.8,15.7,6.8c0,0,5.3,1.7,6.9-2.3c0,0,6.8-14.5,12.7-14.1l11.1,0.9c0,0,3.8,1,1,4
		c0,0-3.8,5-5.3,8.1c0,0-0.4,2.6-4,2c0,0-4.9-2.4-7.7,6.7c0,0-2.5,4.6-6.9,6.1c0,0-4,1.3-7.8-0.8c0,0-18.3-6.7-21.5-9.1
		c0,0-4-2.2-7.1-1.2c0,0-5.5,1.3-7.7-3l-5.7-8.8c0,0-1.2-2.2-1.1-4.9c0,0-0.5-2.7,1.8-5.4c0,0,2.1-2.3,2.5-3.9l4-9.5
		c0,0,1.6-2.5,3.4-3.6l5.4,0.4c0,0-3.7,9.5-6.4,13.4c0,0-3.7,5.6-3.5,9.2c0,0,0.2,2.5,1.2,3.6c0,0,1.2,2,1.7,3c0,0,1.6,3.5,3,4.3
		c0,0,2.3,1.4,2.9,1.4c0,0,1,0.3,0.3-1.5c0,0-3-6.4-2.8-9.8c0,0-0.6-3.5,1.9-5.6c0,0,5.9-9.3,6.7-12.1c0,0,1.8-3.7,2.8-4.3
		c0,0,2.1-2.7-1.3-4c0,0-8.3-1.9-9.7-2.9c0,0-4-1.2-6.6-9.5c0,0-3.5-9.6-3.5-15.6c0,0-7,13.4,4.1,27.1c0,0-8.8,2.6-12.4,0
		c0,0-10.9-1.6-13.1-2.2c0,0-2.7-0.7-1.2,1.3c0,0,3.3,4.7,3.6,7.8c0,0,0.2,2.4,2.2,3.9c0,0,6.2,4.4,6.8,8.5c0,0,1.3,4-1.4,3.1
		c0,0-3.7-1.7-5,0c0,0-0.4,0.2,1.1,1.8c0,0,3.7,3.3,4,7.6c0,0-0.7,5-2,6.7c0,0-1.7,2.3-4.3,1.6c0,0-0.7-0.6-2-0.2c0,0-1.3,0-4.7-1.2
		c0,0-5.2-1.4-7-2c0,0-6.6-2.4-9.9-2.2c0,0-2.1-0.2-4.8,0.3c0,0-8.3,0.9-13.8-5.2c0,0-4.2-3.3-5.6-0.1c0,0-10.1,13.5-26.4,10
		c0,0,13-5.3,16.4-12.6c0,0,0.4-6.2,7.3-14.8c0,0,2.1-2.8,0.1-3.6c0,0-1.2-0.9-3.7,1.7c0,0-6.5,6.2-8.8,11.9c0,0-8,12.1-19.6,8.1
		c0,0,9.1-3.5,13.3-10c0,0,2.6-8.8,11.5-15.4c0,0,0.3-9.9,4.5-15.5c0,0,2.1-9.3,2.7-11.5c0,0,2.2-8.2,2.2-10.5c0,0-0.7-10.7,6.2-19
		c0,0,4.6-8.9,11.8-15.1c0,0,5.5-6.8,9.5-10.9c0,0,5.4-6.3,17-14.5c0,0,5.3-3.8,9.2-8c0,0,20.6-14.8,35.5-2.9c0,0,10.3,7,18.9,9.2
		c0,0,17.6,2.1,25.2,14.3c0,0,0.6,2.3,7.8,3.1c0,0,15.6-1.9,27.1,13.5c0,0,5.3,5.2,15.9,6.5c0,0,17.2-1.8,28.5,11.5
		c0,0,28.3,24.7,45.2,8.7c0,0,8.8-8.3-1.3-23.3c0,0-6.3-7.7-17.2-15.7c0,0-8.8-6.2-4.8-15.8c0,0,2.1-9.3,15.3-9.5
		c0,0,16.5-3.2,23.2-11.5c0,0,7.5,26.3-21.8,25.8c0,0-7.6,1.1-5,7.2c0,0,3.7,5.2,8.8,7.1c0,0,8.8,3.9,12.8,16.7
		c0,0,8.9,22.5-12.9,31.2C623.2,140.9,613.5,140,604.9,138.5L604.9,138.5z M646.8,191.6c-1.2-1-2.9-1.5-4.4-1.2
		c-3.5,0.7-1.4,3.7-1.4,3.7c1.4,2.6,6,7.1,6,7.1c4.1,3.1,7.3-0.6,7.3-0.6c3-3-0.9-4.4-0.9-4.4C651.1,195.3,646.8,191.6,646.8,191.6z
		 M655.5,205.7c0,0-1.3,0.9-0.6,2.8c0,0,3.2,8.8,3.1,11.8c0,0,7.2,1.3,8.1-2.3c0,0,0.2-1.4-1-3.3c0,0-1.2-1.8-1.5-5.2
		c0,0,0.1-8.5-5.4-6.2C657.2,203.8,656.3,204.7,655.5,205.7L655.5,205.7z M403.4,187.7c1.3,0,1.6-0.5,1.4-1.9
		c-0.8-3.9-3.9-5.5-3.9-5.5c-5.8-3.5-6.5,0-6.5,0c-1.1,6.2,3.8,7,3.8,7C399.2,187.6,403.4,187.7,403.4,187.7L403.4,187.7z
		 M385.9,160.1c-0.1-2.9-0.4-9.4,2.6-11.7c1.1-0.9,5.4-5.6,5.4-5.6c0.7-1.1,1.2-1.2,1.2-1.2c0.9-0.1,2,2,2,2
		c3.1,5.9,6.1,5.2,6.1,5.2c0-1.1-0.7-2.3-0.7-2.3c-1.5-2.9-2.9-5.8-4.4-8.6c-0.3-0.8-0.6-1.6-0.9-2.4c-3-4.6-5.7-1.1-5.7-1.1
		c-1.2,2.4-7.9,10.3-7.9,10.3c-0.9,1-1.4,2.3-1.6,3.6C380.5,159.2,385.9,160.1,385.9,160.1L385.9,160.1z M447,94.6
		c0.9-1.6,0.5-3.3-0.4-4.9c-2.1-3.1-4,0.3-4,0.3c-7.1,9.9-1.9,24.7-1.9,24.7C441.5,101.1,447,94.6,447,94.6L447,94.6z"/>
</g>
</svg>
