<?xml version="1.0" encoding="utf-8"?>
<!-- Generator: Adobe Adobe Illustrator 29.2.0, SVG Export Plug-In . SVG Version: 6.00 Build 0)  -->
<svg version="1.1" id="Layer_1" xmlns="http://www.w3.org/2000/svg" xmlns:xlink="http://www.w3.org/1999/xlink" x="0px" y="0px"
	 width="3356px" height="2543px" viewBox="0 0 3356 2543" style="enable-background:new 0 0 3356 2543;" xml:space="preserve">
<style type="text/css">
	.st0{fill:#FFFFFF;}
</style>
<path class="st0" d="M1683,0c2,0,4,0,6,0c0.2,0.7,0.4,1.4,0.6,2.1c2.6,8.5,6.3,16.1,10.5,23.9c2,3.9,4,7.7,6.1,11.6
	c0.4,0.8,0.8,1.6,1.2,2.4c4.1,7.8,7.9,15.7,11.7,23.7c0.5,1,0.5,1,1,2c1.6,3.4,3.3,6.8,4.9,10.2c3,6.3,6.1,12.5,9.1,18.8
	c5.3,10.9,10.6,21.8,15.8,32.7c5.8,12.1,11.7,24.2,17.6,36.3c0.7,1.5,1.4,3,2.2,4.5c0.4,0.7,0.7,1.5,1.1,2.2
	c3.7,7.7,7.5,15.4,11.2,23.1c5.5,11.3,11,22.7,16.5,34s11,22.7,16.5,34c7.6,15.7,15.2,31.4,22.9,47.1c3.2,6.6,6.4,13.1,9.6,19.7
	c1.8,3.6,3.5,7.3,5.3,10.9c0.7,1.5,1.4,2.9,2.1,4.4c0.4,0.7,0.7,1.4,1.1,2.2c71.2,146.6,71.2,146.6,72.2,148.7
	c0.7,1.5,1.4,2.9,2.1,4.4c1.8,3.6,3.5,7.3,5.3,10.9c3.2,6.6,6.4,13.2,9.6,19.7c7.6,15.6,15.2,31.3,22.8,46.9
	c5.1,10.6,10.3,21.2,15.4,31.8c0.4,0.7,0.7,1.4,1.1,2.2c2.5,5.1,5,10.3,7.5,15.4c2.9,5.9,5.7,11.7,8.6,17.6c0.4,0.7,0.7,1.4,1.1,2.2
	c5.5,11.2,10.9,22.5,16.4,33.7c5.1,10.6,10.3,21.2,15.4,31.8c0.4,0.7,0.7,1.4,1.1,2.2c2.5,5.1,5,10.3,7.5,15.4
	c2.9,5.9,5.7,11.7,8.6,17.6c0.4,0.7,0.7,1.4,1.1,2.2c5.5,11.2,10.9,22.5,16.4,33.7c5.1,10.6,10.3,21.2,15.4,31.8
	c0.4,0.7,0.7,1.4,1.1,2.2c2.5,5.1,5,10.3,7.5,15.4c2.9,5.9,5.7,11.7,8.6,17.6c0.4,0.7,0.7,1.4,1.1,2.2c5.5,11.2,10.9,22.5,16.4,33.7
	c5.2,10.7,10.3,21.3,15.5,32c5.8,12,11.7,24,17.5,36c5.2,10.7,10.3,21.3,15.5,32c5.8,12,11.7,24,17.5,36c5.2,10.7,10.3,21.3,15.5,32
	c5.5,11.4,11,22.7,16.6,34.1c0.3,0.7,0.7,1.4,1,2.1c2.6,5.5,5.3,10.9,7.9,16.4c2.3,4.8,4.6,9.6,6.9,14.3c0.3,0.7,0.7,1.4,1,2.1
	c5.2,10.7,10.4,21.4,15.6,32.1c7.5,15.5,15,30.9,22.5,46.4c3,6.2,6,12.4,9,18.5c1.7,3.4,3.3,6.9,5,10.3c0.7,1.4,1.3,2.8,2,4.1
	c36,74.2,36,74.2,37,76.3c0.7,1.4,1.3,2.8,2,4.1c1.7,3.4,3.3,6.9,5,10.3c3,6.2,6,12.4,9.1,18.7c6.6,13.7,13.3,27.4,19.9,41.1
	c6.2,12.9,12.4,25.7,18.7,38.6c0.4,0.7,0.7,1.5,1.1,2.2c0.4,0.7,0.7,1.5,1.1,2.2c5.4,11.1,10.8,22.3,16.2,33.5
	c2.3,4.8,4.7,9.7,7,14.5c6.3,13,12.6,26,18.9,39c5.1,10.6,10.3,21.3,15.4,31.9c0.4,0.7,0.7,1.5,1.1,2.2c1.4,3,2.9,5.9,4.3,8.9
	c3.8,7.8,7.6,15.7,11.4,23.5c0.3,0.7,0.7,1.4,1,2.1c5.2,10.6,10.3,21.3,15.4,32c5,10.3,10,20.6,15,30.8c4.8,9.9,9.6,19.8,14.4,29.8
	c6.2,12.8,12.4,25.6,18.6,38.4c0.4,0.7,0.7,1.5,1.1,2.2c0.4,0.7,0.7,1.5,1.1,2.2c3.8,7.7,7.5,15.5,11.3,23.2c0.3,0.7,0.7,1.4,1,2.1
	c1.7,3.4,3.3,6.8,5,10.2c2,4.1,4,8.2,6,12.3c0.5,1,0.5,1,1,2.1c1,2.1,2,4.1,3,6.2c7.3,15.1,7.3,15.1,11,22.6
	c9.3,19.2,18.6,38.3,27.9,57.5c3.9,8,7.8,16.1,11.7,24.1c1.1,2.2,2.1,4.4,3.2,6.6c0.4,0.7,0.7,1.4,1.1,2.2
	c2.8,5.9,5.7,11.7,8.6,17.6c1.8,3.6,3.5,7.3,5.3,10.9c3.3,6.7,6.5,13.4,9.8,20.1c1.5,3.1,3,6.1,4.5,9.2c0.7,1.5,1.4,2.9,2.1,4.4
	c1,2,2,4,2.9,6c0.6,1.1,1.1,2.3,1.7,3.5c3.5,7.9,3.7,17.1,1.3,25.4c-0.5,1.2-0.9,2.3-1.4,3.5c-0.3,0.7-0.5,1.3-0.8,2
	c-3.8,9.7-8.1,19.2-12.2,28.7c-2.6,5.9-5.2,11.8-7.8,17.8c-0.5,1.2-1,2.4-1.6,3.6c-4.2,9.6-8.2,19.2-12.3,28.8
	c-6.5,15.4-13,30.8-19.6,46.2c-8,18.7-16,37.4-24,56.1c-0.7,1.7-0.7,1.7-1.4,3.4c-2.4,5.6-4.8,11.2-7.1,16.8
	c-4.3,10.1-8.6,20.2-12.9,30.3c-2.4,5.6-4.8,11.3-7.2,16.9c-1,2.2-1.9,4.5-2.9,6.8c-0.7,1.7-0.7,1.7-1.4,3.4
	c-24.4,57.4-48.9,114.8-73.3,172.1c-0.5,1.1-0.9,2.2-1.4,3.4c-1,2.3-1.9,4.5-2.9,6.8c-2.4,5.6-4.8,11.2-7.2,16.8
	c-4.5,10.5-8.9,20.9-13.4,31.4c-2.1,4.9-4.2,9.8-6.3,14.7c-1,2.3-2,4.6-3,7c-0.9,2.2-1.9,4.4-2.8,6.6c-0.9,2.1-1.8,4.1-2.6,6.2
	c-2,4.6-3.9,9.2-5.7,13.8c-0.5,1.2-0.5,1.2-1,2.4c-0.6,1.5-1.1,2.9-1.7,4.4c-0.8,1.9-0.8,1.9-2.3,4.9c-2.2,0.9-2.2,0.9-4,1
	c-8.2-16.8-16.3-33.6-24.1-50.5c-4-8.7-8.2-17.3-12.4-26c-5.3-11-10.5-22-15.7-33.1c-3.9-8.4-7.8-16.6-11.8-24.9
	c-4.6-9.4-9.1-18.9-13.4-28.4c-4.9-10.6-9.9-21.1-15-31.6c-5-10.3-9.8-20.6-14.6-31c-4-8.7-8.2-17.4-12.4-26.1
	c-5.3-10.9-10.5-21.9-15.6-32.9c-4-8.7-8.2-17.4-12.4-26.1c-5.3-11-10.5-22-15.7-33.1c-3.9-8.4-7.8-16.6-11.8-24.9
	c-4.6-9.4-9.1-18.9-13.4-28.4c-4.9-10.6-9.9-21.1-15-31.6c-5-10.3-9.8-20.6-14.6-31c-4-8.7-8.2-17.4-12.4-26.1
	c-5.3-10.9-10.5-21.9-15.6-32.9c-4-8.7-8.2-17.4-12.4-26.1c-5.3-11-10.5-22-15.7-33.1c-3.9-8.4-7.8-16.6-11.8-24.9
	c-4.6-9.4-9.1-18.9-13.4-28.4c-4.9-10.6-9.9-21.1-15-31.6c-5-10.3-9.8-20.6-14.6-31c-4-8.7-8.2-17.4-12.4-26.1
	c-5.3-10.9-10.5-21.9-15.6-32.9c-4-8.7-8.2-17.4-12.4-26.1c-5.3-10.9-10.5-21.9-15.6-32.9c-4-8.7-8.2-17.4-12.4-26.1
	c-5.3-11-10.5-22-15.7-33.1c-3.9-8.4-7.8-16.6-11.8-24.9c-4.6-9.4-9.1-18.9-13.4-28.4c-4.9-10.6-9.9-21.1-15-31.6
	c-5-10.3-9.8-20.6-14.6-31c-4-8.7-8.2-17.4-12.4-26.1c-5.3-10.9-10.5-21.9-15.6-32.9c-4-8.7-8.2-17.4-12.4-26.1
	c-5.3-11-10.5-22-15.7-33.1c-3.9-8.4-7.8-16.6-11.8-24.9c-4.6-9.4-9.1-18.9-13.4-28.4c-4.9-10.6-9.9-21.1-15-31.6
	c-5-10.3-9.8-20.6-14.6-31c-4-8.7-8.2-17.4-12.4-26.1c-5.3-10.9-10.5-21.9-15.6-32.9c-4-8.7-8.2-17.4-12.4-26.1
	c-5.3-11-10.5-22-15.7-33.1c-3.9-8.4-7.8-16.6-11.8-24.9c-4.6-9.4-9.1-18.9-13.4-28.4c-4.9-10.6-9.9-21.1-15-31.6
	c-5-10.3-9.8-20.6-14.6-31c-4.4-9.5-9-19-13.6-28.4c-5.7-11.6-11.1-23.3-16.4-35.2c-4.9,9.6-9.6,19.3-14,29.2
	c-1.6,3.6-3.2,7.1-4.8,10.7c-0.3,0.7-0.7,1.5-1,2.3c-3.8,8.5-7.7,16.9-11.6,25.4c-5.4,11.7-10.7,23.3-16,35
	c-5.7,12.5-11.4,24.9-17.1,37.4c-5,10.9-10,21.8-14.9,32.6c-5.3,11.6-10.6,23.3-15.9,34.9c-5.6,12.1-11.1,24.2-16.6,36.2
	c-0.3,0.7-0.7,1.4-1,2.2c-1.7,3.6-3.3,7.2-5,10.9c-3,6.6-6,13.1-9,19.7c-1.7,3.6-3.3,7.3-5,10.9c-0.7,1.5-1.3,2.9-2,4.4
	c-0.3,0.7-0.7,1.4-1,2.2c-67,146.6-67,146.6-68,148.8c-0.7,1.5-1.3,2.9-2,4.4c-1.7,3.6-3.3,7.3-5,10.9c-3,6.5-6,13.1-9,19.6
	c-1.7,3.6-3.3,7.2-5,10.9c-0.3,0.7-0.7,1.4-1,2.2c-5.6,12.1-11.1,24.3-16.7,36.4c-5.3,11.5-10.5,23-15.8,34.6
	c-5.4,11.8-10.8,23.6-16.2,35.3c-5,10.9-10,21.8-14.9,32.6c-5.3,11.6-10.6,23.3-15.9,34.9c-5.6,12.1-11.1,24.2-16.6,36.2
	c-0.3,0.7-0.7,1.4-1,2.2c-1.7,3.6-3.3,7.2-5,10.9c-3,6.6-6,13.1-9,19.7c-1.7,3.6-3.3,7.3-5,10.9c-0.7,1.5-1.3,2.9-2,4.4
	c-0.3,0.7-0.7,1.4-1,2.2c-83,181.6-83,181.6-84,183.8c-0.7,1.5-1.3,2.9-2,4.4c-1.7,3.6-3.3,7.3-5,10.9c-3,6.5-6,13.1-9,19.6
	c-1.7,3.6-3.3,7.2-5,10.9c-0.3,0.7-0.7,1.4-1,2.2c-5.6,12.1-11.1,24.3-16.7,36.4c-5,10.8-9.9,21.7-14.9,32.5
	c-5.3,11.6-10.6,23.3-15.9,34.9c-5.6,12.1-11.1,24.2-16.7,36.4c-0.3,0.7-0.7,1.4-1,2.2c-5.1,11.1-10.2,22.3-15.2,33.5
	c-5.7,12.6-11.5,25.1-17.2,37.6c-4.8,10.5-9.7,21-14.5,31.6c-0.3,0.7-0.7,1.4-1,2.2c-1.7,3.6-3.3,7.2-5,10.9c-3,6.6-6,13.1-9,19.7
	c-1.7,3.6-3.3,7.3-5,10.9c-0.7,1.5-1.3,2.9-2,4.4c-0.3,0.7-0.7,1.4-1,2.2c-51,111.6-51,111.6-52,113.8c-0.7,1.5-1.3,2.9-2,4.4
	c-1.7,3.6-3.3,7.3-5,10.9c-3,6.5-6,13.1-9,19.6c-13.9,30.5-27.9,61-42,91.5c-1,0-2,0-3,0c-8.2-16.9-16.4-33.8-24.3-50.8
	c-3.7-7.9-7.4-15.8-11.2-23.7c-5-10.3-9.8-20.6-14.6-31c-3.7-8-7.5-16-11.4-24c-4.3-8.9-8.5-17.8-12.6-26.7
	c-5.3-11.5-10.7-22.9-16.1-34.3c-0.6-1.3-0.6-1.3-1.2-2.6c-0.6-1.3-0.6-1.3-1.2-2.6c-0.8-1.7-1.6-3.4-2.5-5.2
	c-0.4-0.9-0.8-1.7-1.2-2.6c-4.1-8.6-8.2-17.2-12.2-25.8c-0.3-0.7-0.7-1.5-1.1-2.2c-1.7-3.7-3.5-7.4-5.2-11.1
	c-3.2-6.7-6.4-13.5-9.5-20.2c-1.1-2.2-2.1-4.5-3.2-6.7c-3.2-6.8-6.4-13.6-9.6-20.4c-7.5-15.9-15.1-31.9-22.5-47.9
	c-4.4-9.5-8.9-18.9-13.3-28.4c-4.8-10.3-9.7-20.6-14.4-30.9c-6.4-13.9-12.9-27.7-19.4-41.5c-2.3-4.9-4.6-9.9-7-14.8
	c-6.8-14.4-13.6-28.9-20.4-43.3c-0.8-1.7-1.6-3.4-2.4-5.1c-4.2-8.8-8.4-17.6-12.7-26.3c-0.7-1.4-1.4-2.8-2.1-4.2
	c-1.3-2.6-2.6-5.2-3.9-7.7c-7.5-15.2-9.6-27.8-4.6-44c1.6-4,3.4-7.8,5.4-11.6c0.5-1.1,1.1-2.1,1.6-3.3c1.7-3.4,3.4-6.8,5-10.2
	c1.1-2.2,2.1-4.3,3.2-6.5c2.7-5.5,5.5-11.1,8.3-16.6c1.8-3.6,3.6-7.3,5.5-10.9c3.9-7.7,7.7-15.4,11.6-23.2
	c4.2-8.4,8.4-16.7,12.6-25.1c2.1-4.2,4.2-8.3,6.3-12.5c5.7-11.4,11.3-22.8,16.8-34.3c3.6-7.6,7.4-15.2,11.1-22.7
	c1.1-2.2,2.2-4.3,3.3-6.5c2.7-5.4,5.4-10.7,8.1-16.1c2.7-5.3,5.3-10.6,8-15.9c0.4-0.7,0.7-1.5,1.1-2.2c4.9-9.7,9.6-19.5,14.3-29.3
	c6-12.6,12.3-25.1,18.6-37.5c6.2-12.3,12.3-24.6,18.2-37.1c5.9-12.4,12.1-24.6,18.2-36.8c5.6-11.1,11.1-22.1,16.4-33.3
	c6.3-13.3,13-26.5,19.6-39.7c6-12,12-24.1,17.8-36.2c5.7-12,11.7-23.8,17.6-35.6c5.9-11.8,11.8-23.6,17.4-35.5
	c4.4-9.3,9-18.5,13.7-27.7c9.1-18.1,9.1-18.1,17.9-36.3c5.8-12.3,11.9-24.3,18-36.5c5.5-11,11-22.1,16.3-33.3
	c5-10.6,10.3-21,15.5-31.4c5.3-10.5,10.5-21,15.5-31.7c4.6-9.8,9.5-19.4,14.4-29.1c5-9.9,9.9-19.9,14.6-29.9
	c4.5-9.4,9.1-18.7,13.8-28c4.8-9.6,9.6-19.3,14.2-29.1c4.3-9,8.8-17.9,13.2-26.8c4.7-9.4,9.3-18.8,13.8-28.2
	c4.1-8.6,8.4-17.1,12.6-25.6c4.1-8.1,8.1-16.3,12-24.6c4.5-9.6,9.2-19,14-28.4c4.1-8.1,8.1-16.3,12-24.6c4.2-8.9,8.6-17.7,13-26.5
	c4.4-8.8,8.7-17.5,12.9-26.4c4.4-9.3,9-18.5,13.6-27.6c4.6-9.1,9.1-18.3,13.5-27.5s8.9-18.4,13.5-27.5c4.6-9.1,9.1-18.2,13.4-27.4
	c4.5-9.6,9.3-19.1,14.1-28.6c4.7-9.3,9.4-18.7,13.8-28.1c5.1-10.7,10.4-21.3,15.7-31.9c7.8-15.6,7.8-15.6,15.4-31.4
	c5.2-11,10.6-21.8,16.1-32.6c8.1-16.1,8.1-16.1,15.9-32.4c6.2-13.2,12.8-26.1,19.3-39.1c4.6-9.2,9.2-18.5,13.7-27.9
	c6.2-13,12.6-25.8,19.1-38.6c5.4-10.8,10.8-21.6,16-32.5c6.1-12.9,12.6-25.7,19-38.5c5.9-11.7,11.7-23.5,17.4-35.4
	c5.5-11.6,11.3-23,17.1-34.4c5.8-11.5,11.4-23,17-34.6c4.4-9.3,9.1-18.6,13.7-27.8c6.5-13,13-25.9,19.2-39c5-10.6,10.3-21,15.5-31.4
	c5.4-10.7,10.7-21.5,15.9-32.4c3.8-8,7.8-16,11.8-23.9c4-7.9,7.8-15.9,11.7-24c4.7-9.8,9.4-19.6,14.2-29.3
	c6.8-13.8,13.5-27.6,20.2-41.5c5.7-11.8,11.4-23.6,17.2-35.4c1-2.1,2-4.1,3-6.2c1.4-2.9,2.8-5.8,4.2-8.7c0.6-1.3,0.6-1.3,1.3-2.7
	c0.4-0.8,0.8-1.6,1.2-2.4c0.3-0.7,0.7-1.4,1-2.1c1-1.9,1-1.9,3-4.9C1682.4,4,1682.7,2,1683,0z"/>
<path class="st0" d="M2781.8,31.8c1,0,2,0,3,0c3.3,0,6.6,0,10,0c2.4,0,4.8,0,7.2,0c5.2,0,10.5,0,15.7,0c7.8,0,15.6,0,23.3,0.1
	c13.1,0,26.2,0,39.2,0.1c13,0,25.9,0.1,38.9,0.1c0.8,0,1.6,0,2.4,0c4.1,0,8.2,0,12.3,0c29,0.1,57.9,0.1,86.9,0.2
	c28.1,0.1,56.3,0.1,84.4,0.2c1.3,0,1.3,0,2.6,0c8.7,0,17.4,0,26.1,0.1c17.7,0,35.5,0.1,53.2,0.1c0.8,0,1.6,0,2.5,0
	c54.5,0.1,109,0.2,163.4,0.4c-0.3,1.4-0.6,2.9-1,4.3c-0.3,1.2-0.3,1.2-0.5,2.4c-0.5,2.3-1.2,4.4-2,6.6c-0.3,0.8-0.6,1.5-0.8,2.3
	c-0.3,0.8-0.6,1.6-0.9,2.4c-0.3,0.9-0.6,1.7-1,2.6c-0.7,1.9-1.4,3.7-2.1,5.6c-1.5,4.1-3.1,8.2-4.6,12.3c-0.8,2.2-1.6,4.3-2.4,6.5
	c-4,10.6-7.9,21.3-11.8,32c-7,19.3-14.1,38.5-21.2,57.7c-7.5,20.4-15,40.8-22.4,61.2c-1.9,5.3-3.9,10.6-5.8,15.9
	c-0.2,0.6-0.5,1.3-0.7,2c-4.7,12.8-9.4,25.7-14.1,38.5c-0.5,1.5-0.5,1.5-1.1,3c-2.2,5.9-4.3,11.8-6.5,17.7
	c-3.3,9.1-6.7,18.2-10,27.3c-0.4,1-0.7,2-1.1,3.1c-5.8,15.9-11.6,31.8-17.4,47.6c-6.2,16.9-12.4,33.8-18.6,50.7c-0.4,1-0.7,2-1.1,3
	c-3,8.1-6,16.2-8.9,24.3c-2.6,7.1-5.2,14.2-7.8,21.3c-0.4,1-0.7,2-1.1,3c-5.8,15.9-11.6,31.8-17.4,47.6
	c-6.2,16.9-12.4,33.8-18.6,50.7c-0.4,1-0.7,2-1.1,3c-3,8.1-6,16.2-8.9,24.3c-2.6,7.1-5.2,14.2-7.8,21.3c-0.4,1-0.7,2-1.1,3
	c-5.8,15.9-11.6,31.8-17.4,47.6c-6.2,16.9-12.4,33.8-18.6,50.7c-0.4,1-0.7,2-1.1,3c-3,8.1-6,16.2-8.9,24.3
	c-2.6,7.1-5.2,14.2-7.8,21.3c-0.4,1-0.7,2-1.1,3c-5.8,15.9-11.6,31.8-17.4,47.6c-6.2,16.9-12.4,33.8-18.6,50.7c-0.4,1-0.7,2-1.1,3
	c-3,8.1-6,16.2-8.9,24.3c-2.6,7.1-5.2,14.2-7.8,21.3c-0.4,1-0.7,2-1.1,3c-5.8,15.9-11.6,31.8-17.4,47.6
	c-6.2,16.9-12.4,33.8-18.6,50.7c-0.4,1-0.7,2-1.1,3c-3,8.1-6,16.2-8.9,24.3c-2.6,7.1-5.2,14.2-7.8,21.3c-0.4,1-0.7,2-1.1,3
	c-5.8,15.9-11.6,31.8-17.4,47.6c-6.2,16.9-12.4,33.8-18.6,50.7c-0.4,1-0.7,2-1.1,3c-3,8.1-6,16.2-8.9,24.3
	c-2.6,7.1-5.2,14.2-7.8,21.3c-0.4,1-0.7,2-1.1,3c-5.8,15.9-11.6,31.8-17.4,47.6c-6.2,16.9-12.4,33.8-18.6,50.7c-0.4,1-0.7,2-1.1,3
	c-3,8.1-6,16.2-8.9,24.3c-2.6,7.1-5.2,14.2-7.8,21.3c-0.4,1-0.7,2-1.1,3c-5.8,15.9-11.6,31.8-17.4,47.6
	c-6.2,16.9-12.4,33.8-18.6,50.7c-0.4,1-0.7,2-1.1,3c-3,8.1-6,16.2-8.9,24.3c-2.6,7.1-5.2,14.2-7.8,21.3c-0.4,1-0.7,2-1.1,3
	c-5.8,15.9-11.6,31.8-17.4,47.6c-6.2,16.9-12.4,33.8-18.6,50.7c-0.4,1-0.7,2-1.1,3c-3,8.1-6,16.2-8.9,24.3
	c-2.6,7.1-5.2,14.2-7.8,21.3c-0.4,1-0.7,2-1.1,3c-4.3,11.7-8.6,23.4-12.9,35.2c-0.4,1.1-0.8,2.3-1.2,3.4c-0.4,1.1-0.8,2.2-1.2,3.4
	c-7.8,21.3-15.6,42.5-23.6,63.7c-1,0-2,0-3,0c-0.6-1.1-1.2-2.3-1.8-3.5c-2.2-4.3-4.4-8.7-6.7-13c-1-1.9-1.9-3.7-2.9-5.6
	c-5.4-10.6-10.8-21.1-16.4-31.6c-3.2-6.1-6.4-12.3-9.4-18.5c-2.8-5.6-5.7-11.1-8.6-16.6c-6.1-11.6-11.9-23.3-17.8-35.1
	c-4.8-9.6-9.6-19.2-14.6-28.7c-6-11.3-11.7-22.8-17.4-34.3c-4.8-9.6-9.6-19.2-14.6-28.6c-6.2-11.7-12.1-23.6-18-35.5
	c-4.9-9.9-9.8-19.8-15-29.5c-6.2-11.7-12.1-23.6-18-35.5c-5.3-10.7-10.7-21.4-16.3-31.9c-5.6-10.5-10.8-21.3-16.1-31.9
	c-5.2-10.4-10.4-20.8-15.9-31.1c-5.4-10.2-10.4-20.5-15.6-30.8c-4.6-9.3-9.3-18.6-14.2-27.8c-5.8-11-11.3-22.1-16.8-33.2
	c-5.1-10.4-10.4-20.7-15.8-30.9c-2.9-5.4-5.7-10.9-8.4-16.4c-3.5-7-7.1-14-10.8-20.9c-4.3-8.2-8.5-16.4-12.7-24.6
	c-4.7-9.1-9.3-18.2-14.1-27.2c-2.9-5.4-5.7-10.8-8.4-16.2c-0.5-1.1-1.1-2.2-1.7-3.3c-4.6-10-2.1-19.8,1.5-29.7
	c0.4-1.1,0.8-2.3,1.2-3.4c1.1-3,2.2-6.1,3.3-9.1c1.2-3.2,2.3-6.4,3.5-9.6c1.9-5.2,3.7-10.4,5.6-15.6c2.3-6.4,4.6-12.8,6.9-19.2
	c0.3-0.9,0.6-1.8,1-2.8c0.6-1.8,1.3-3.6,1.9-5.4c1-2.7,1.9-5.4,2.9-8.1c5.6-15.7,11.1-31.4,16.7-47.2c5.2-14.8,10.4-29.6,15.7-44.4
	c6.7-19,13.4-37.9,20-56.9c0.2-0.6,0.4-1.3,0.7-1.9c0.4-1.3,0.9-2.6,1.3-3.8c1.1-3.2,2.2-6.4,3.3-9.6c0.2-0.6,0.4-1.3,0.7-1.9
	c6.7-19.1,13.4-38.1,20.1-57.1c2.8-7.9,5.6-15.8,8.3-23.7c7.9-22.4,15.8-44.8,23.7-67.3c5.7-16,11.3-32,17-48.1
	c6.3-18,12.7-36,19-53.9c5.7-16,11.3-32,17-48.1c6.3-18,12.7-36,19-53.9c5.7-16,11.3-32,17-48.1c6-17.1,12.1-34.3,18.1-51.4
	c0.3-1,0.7-2,1.1-3c2.8-7.9,5.6-15.7,8.4-23.6c2.4-6.9,4.9-13.8,7.3-20.7c0.5-1.5,0.5-1.5,1.1-3c6.1-17.3,12.2-34.7,18.3-52
	c5.7-16.2,11.4-32.4,17.2-48.6c5.6-15.6,11.1-31.3,16.6-47c5.9-16.8,11.8-33.6,17.8-50.3c5.4-15.1,10.7-30.2,16-45.3
	c7.6-21.7,15.3-43.3,23-65c1.6-4.5,3.2-9,4.7-13.5c0.6-1.8,1.3-3.7,1.9-5.5c0.7-2.1,1.4-4.1,2.2-6.2c1.6-4.6,3.1-8.6,6.7-12
	C2771.3,31.7,2776.2,31.7,2781.8,31.8z"/>
<path class="st0" d="M549.3,72.2c8.9,8.5,11.9,19.7,14.9,31.4c3.9,15.2,9.2,29.8,14.8,44.4c1.3,3.5,2.6,6.9,4,10.4
	c2.2,5.9,4.4,11.7,6.7,17.6c3.3,8.8,6.6,17.5,9.9,26.3c0.5,1.4,1.1,2.9,1.6,4.3c0.8,2.2,1.6,4.3,2.4,6.5c3,8,6,15.9,9,23.9
	c0.5,1.4,1.1,2.9,1.6,4.3c1.1,2.8,2.1,5.6,3.2,8.5c2.2,5.9,4.5,11.8,6.7,17.7c3.1,8.1,6.1,16.2,9.2,24.4c7,18.4,13.9,36.9,20.9,55.3
	c8.5,22.6,17,45.1,25.5,67.7c0.4,0.9,0.4,0.9,0.7,1.9c3.5,9.4,7.1,18.7,10.6,28.1c16.6,44.1,33.2,88.1,49.8,132.2
	c4.1,10.9,8.2,21.9,12.4,32.8c0.3,0.7,0.5,1.4,0.8,2.2c7.8,20.8,15.7,41.6,23.5,62.3c9.2,24.4,18.4,48.8,27.6,73.2
	c0.8,2.2,1.6,4.4,2.5,6.5c0.5,1.5,1.1,2.9,1.6,4.4c3.9,10.4,7.8,20.8,11.8,31.2c10.1,26.7,20.1,53.3,30.1,80
	c9.6,25.6,19.2,51.1,28.8,76.6c4,10.5,7.9,21,11.8,31.4c5.7,15.1,11.3,30.1,17,45.2c1.7,4.5,3.4,9,5.1,13.4
	c2.2,5.8,4.4,11.6,6.6,17.4c0.8,2.2,1.6,4.4,2.5,6.5c4.3,11.3,8.5,22.6,12.9,33.9c0.8,2,1.5,3.9,2.3,5.9c1.4,3.6,2.8,7.2,4.2,10.8
	c0.6,1.6,1.2,3.2,1.9,4.8c0.3,0.7,0.6,1.4,0.8,2.1c5.5,14.5,5.4,27.2-0.9,41.4c-3.2,6.7-6.5,13.4-9.9,20c-1.1,2.2-2.2,4.3-3.3,6.5
	c-2.9,5.7-5.7,11.4-8.6,17.1c-4,8-8,15.9-12,23.9c-2.1,4.2-4.3,8.5-6.4,12.7c-5.4,10.7-10.7,21.4-15.8,32.2
	c-4,8.3-8.1,16.6-12.2,24.9c-1.3,2.5-2.5,5-3.8,7.5c-3.1,6.2-6.2,12.4-9.3,18.6c-3.1,6.1-6.1,12.3-9.2,18.4
	c-0.4,0.8-0.8,1.7-1.3,2.6c-5.2,10.4-10.3,20.8-15.3,31.3c-6.1,12.9-12.6,25.7-19.1,38.5c-6.4,12.7-12.7,25.3-18.7,38.1
	c-5.5,11.5-11.2,22.9-17,34.3c-5.8,11.6-11.5,23.2-17.1,34.8c-3.8,8.1-7.8,16.1-11.9,24.1c-5.9,11.7-11.7,23.4-17.3,35.2
	c-3.6,7.6-7.4,15.1-11.2,22.7c-3.3,6.6-6.6,13.3-9.8,20c-5.6,11.7-11.2,23.3-16.9,34.9c-2.9,5.8-5.7,11.7-8.6,17.5
	c-0.6,1.1-1.1,2.3-1.7,3.5c-5,10.2-10,20.4-14.9,30.6c-3.6,7.3-7.1,14.7-10.7,22c-0.6,1.3-0.6,1.3-1.3,2.6
	c-2.2,4.4-4.3,8.8-6.5,13.2c-3.9,8-7.8,16-11.6,24c-1,2-1.9,4.1-2.9,6.1c-0.9,1.9-1.7,3.7-2.6,5.6c-0.5,1.1-1,2.2-1.6,3.3
	c-0.4,0.9-0.9,1.9-1.3,2.9c-1.4,2.1-1.4,2.1-3.5,2.8c-0.6,0.1-1.3,0.2-1.9,0.4c-15.3-41.4-30.6-82.8-45.7-124.3
	c-5.7-15.5-11.3-31-17-46.5c-7.2-19.6-14.3-39.1-21.5-58.7c-7-19.2-14-38.4-21.1-57.6c-5.7-15.6-11.5-31.2-17.2-46.8
	c-6.1-16.8-12.3-33.7-18.5-50.5c-6.6-17.9-13.2-35.9-19.7-53.8c-5.7-15.5-11.3-31-17-46.5c-6.9-18.8-13.8-37.7-20.7-56.5
	c-0.2-0.7-0.5-1.3-0.7-2c-2.4-6.7-4.9-13.4-7.3-20.1c-4.4-12.2-8.9-24.3-13.3-36.5c-0.4-1.1-0.8-2.1-1.2-3.2
	c-6-16.4-12-32.8-18.1-49.3c-6.4-17.4-12.7-34.7-19-52.1c-6.5-17.8-13-35.6-19.6-53.4c-6.9-18.7-13.7-37.5-20.5-56.3
	c-5.9-16.6-12-33.1-18.1-49.6c-7.6-20.6-15.1-41.2-22.5-61.9c-7.1-19.8-14.2-39.6-21.5-59.3c-6.1-16.5-12.1-33.1-18.1-49.7
	c-7-19.3-14-38.6-21.1-57.8c-7.5-20.3-14.9-40.7-22.3-61.1c-6.8-19-13.7-38-20.7-56.9c-7.5-20.3-14.9-40.6-22.2-61
	c-7-19.4-13.9-38.8-21-58.1c-0.4-1-0.8-2.1-1.2-3.2c-4.5-12.2-8.9-24.4-13.4-36.5c-0.4-1.2-0.9-2.4-1.3-3.6
	c-0.4-1.2-0.9-2.4-1.3-3.6c-0.4-1.2-0.9-2.4-1.3-3.6c-0.9-2.4-1.8-4.8-2.7-7.3c-6.5-17.6-12.9-35.2-19.2-52.8
	c-6-16.9-12.2-33.7-18.4-50.4c-6.6-18-13.2-36-19.7-54c-5.8-16.1-11.6-32.2-17.5-48.2c-1.5-4-3-8.1-4.5-12.1c-0.4-1-0.8-2.1-1.2-3.1
	c-4.7-12.9-9.4-25.7-14.1-38.6c-1-2.7-2-5.3-2.9-8c-0.9-2.5-1.9-5.1-2.8-7.6c-0.9-2.5-1.8-5-2.7-7.5c-2.4-6.7-4.8-13.4-7.1-20.1
	c-0.7-2.1-1.5-4.3-2.2-6.4c-0.7-2-1.4-4.1-2.1-6.1c-0.4-1.2-0.9-2.5-1.3-3.7c-0.4-1.1-0.7-2.2-1.1-3.3c-1-2.8-1-2.8-3.4-4
	C0,77,0,77-0.4,74.3c0-1,0.1-2,0.1-3c0-1,0.1-2,0.1-3c0-0.8,0.1-1.5,0.1-2.3c1,0,2.1,0,3.1,0c45.7,0,91.4,0.1,137.1,0.1
	c0.7,0,1.4,0,2.1,0c15.1,0,30.1,0,45.2,0c7.4,0,14.8,0,22.2,0c0.7,0,1.5,0,2.2,0c23.8,0,47.6,0,71.4,0c24.5,0,48.9,0,73.4,0
	c3.5,0,6.9,0,10.4,0c0.7,0,1.4,0,2.1,0c10.9,0,21.9,0,32.8,0c11,0,22,0,33,0c6,0,11.9,0,17.9,0c30.4,0.2,30.4,0.2,60.6-1.8
	C526.3,63,539,63.9,549.3,72.2z"/>
<path class="st0" d="M3347,2542c2,1,2,1,2,1L3347,2542z"/>
<path class="st0" d="M3345,0c2,1,2,1,2,1L3345,0z"/>
</svg>
