<svg width="36" height="36" viewBox="0 0 36 36" fill="none" xmlns="http://www.w3.org/2000/svg">
<rect width="36" height="36" rx="18" fill="#0E0C0E"/>
<path d="M16.8945 25V11.3H19.1145V25H16.8945Z" fill="white"/>
<path d="M21.8823 3.51111C25.0718 4.36574 27.8902 6.24892 29.9003 8.86858C31.9104 11.4882 33 14.698 33 18C33 21.302 31.9104 24.5118 29.9003 27.1314C27.8902 29.7511 25.0718 31.6343 21.8823 32.4889" stroke="#158E38" stroke-width="2"/>
<path d="M14.1177 32.4889C10.9282 31.6343 8.10984 29.7511 6.0997 27.1314C4.08956 24.5118 3 21.302 3 18C3 14.698 4.08956 11.4882 6.0997 8.86858C8.10984 6.24891 10.9282 4.36574 14.1177 3.51111" stroke="#178D39" stroke-width="2"/>
</svg>
