<svg width="36" height="36" viewBox="0 0 36 36" fill="none" xmlns="http://www.w3.org/2000/svg">
<rect width="36" height="36" rx="18" fill="#0E0C0E"/>
<path d="M21.8823 3.51111C25.0718 4.36574 27.8902 6.24892 29.9003 8.86858C31.9104 11.4882 33 14.698 33 18C33 21.302 31.9104 24.5118 29.9003 27.1314C27.8902 29.7511 25.0718 31.6343 21.8823 32.4889" stroke="#FF1E00" stroke-width="2"/>
<path d="M14.1177 32.4889C10.9282 31.6343 8.10984 29.7511 6.0997 27.1314C4.08956 24.5118 3 21.302 3 18C3 14.698 4.08956 11.4882 6.0997 8.86858C8.10984 6.24891 10.9282 4.36574 14.1177 3.51111" stroke="#FF1E00" stroke-width="2"/>
<path d="M18.1703 13.02C16.477 13.02 15.6303 13.6133 15.6303 14.8C15.6303 15.4133 15.8303 15.8533 16.2303 16.12C16.6303 16.3733 17.5103 16.6933 18.8703 17.08C20.2436 17.4533 21.2103 17.9067 21.7703 18.44C22.3303 18.96 22.6103 19.7867 22.6103 20.92C22.6103 22.36 22.197 23.44 21.3703 24.16C20.557 24.8667 19.4436 25.22 18.0303 25.22C16.897 25.22 15.6436 25.0867 14.2703 24.82L13.5503 24.68L13.7703 22.9C15.5703 23.14 16.9436 23.26 17.8903 23.26C19.5436 23.26 20.3703 22.5267 20.3703 21.06C20.3703 20.4867 20.1836 20.0667 19.8103 19.8C19.437 19.52 18.597 19.22 17.2903 18.9C15.9836 18.5667 15.0103 18.1133 14.3703 17.54C13.7303 16.9667 13.4103 16.06 13.4103 14.82C13.4103 13.58 13.8103 12.6467 14.6103 12.02C15.4236 11.38 16.5436 11.06 17.9703 11.06C18.997 11.06 20.2103 11.18 21.6103 11.42L22.3103 11.54L22.1303 13.34C20.2636 13.1267 18.9436 13.02 18.1703 13.02Z" fill="white"/>
</svg>
